<svg height="387" stroke-linecap="round" stroke-linejoin="round" viewBox="0 0 800 387" width="800" xmlns="http://www.w3.org/2000/svg"><path fill="#79726A" d="m267.9485 363.8358-.6511 1.1293-.6513.999-4.6456-.304-4.9492.1302-2.7787-.7384v-.0868l-1.2155-.6514 4.9927.0868 4.7757.2171 1.6498-.9122 1.1723-.7818z"/><path fill="#79726A" d="m47.0885 362.6319-4.2547.304-2.9088-.7819-1.3024-.7818-.0869-.1304-1.4326-.608 1.3457-.8254 4.1245.3477 2.2143.6949 1.6931.7818z"/><path fill="#79726A" d="m299.907 359.4177 2.7352.9555.9551 1.3465.2605.9556.0868 1.1293-3.4298.695-3.6035.5646-4.1679.5212-4.6454.4344-5.2532-.1303-2.9089-.7385.3907-.9121 4.7323-.6081 1.9103-.7383 1.3893-.9557.9985-.8252 1.3459-.7817 1.4327-.9123 1.1288.0001 3.2996-.4779z"/><path fill="#79726A" d="m131.3145 349.3406 2.8654.3474 2.6482-.391-1.259.782-2.0838.5646-3.0826-.1737-2.2142-.7818.4777-.7385z"/><path fill="#79726A" d="m121.6763 349.297 3.3864.8688-1.3025-.0868-2.8655-.2172-3.039-.6082 1.6064-.4778z"/><path fill="#79726A" d="m180.5909 345.8656 2.4313.3041 2.4312-.2606 1.3025 1.2596-1.7366-.1736-2.6917.0868-2.7352-.0868-2.9957.1302-2.2575-.4344-1.1723-.9121 1.3893-.391 2.8219.3041z"/><path fill="#79726A" d="m248.2662 343.6988.2605.999-.3908.8687-.6078.8253-2.6049.304-2.4748.4344-2.9088-.0434 1.0854-.8687-2.6049.304-2.4747.3041-1.6932-.6515-.1302-.9122 2.4313-.8687 1.5195-.2606 2.5616.0868.6511-1.1294.1303-.8252-.0434-1.7809 1.259-1.0425 2.0406-.3474 1.1721.8252.521.8253.9552.999.7381.9557z"/><path fill="#79726A" d="m270.072 328.618-.9552.4778-1.6498-.3476-1.8234.2172-1.5195.5212-1.6064.5648-1.0854.6515-.3039.8688.1302.8252 1.0419.7384-1.5195.5213-2.0839.1736-1.2157.7385-1.3025.6949-1.3892.9557-.3473.8252.7815.912 1.1722.6951 1.8235.5211 1.6931.6951.9118.8686.4775.8253.6512.8688 1.042.7384.6512.8252.3039 2.0416.6513.8252.1736.8688.6947.8687-.3039 1.1728-1.2157.9121-1.3024.7384-2.9523.304-.9985.7819-1.3459.7384-3.3431.8252-2.9522.3476-2.7785.4778-2.9957.4777-1.78.9122-3.5601.0868-3.9074-.0868-3.5166.1738h-3.7338l.6947.8687 3.3864.3907 2.4747.6082 1.3893.7818-2.4747.695-3.8206-.2172-3.1693.5647-.1303.9122-.0867.8687 2.6049.7384.4775.8252 2.8221.8253 4.6888.3476 3.9942.608 3.1694.695 4.0377.6949 5.5136.3476 5.427.608 3.7772.6516 4.1243.7385 2.1708 1.0424 1.0854.8253 2.6918-.7819 3.6469-.6516 3.8639-.6949 4.6021-.5647 3.9508-.6081 5.5138-.0434 5.4268.304 4.4718.5213 1.4328-.9556 3.0824-.6515 5.6007-.0434 4.3849-.4779 4.1679-.4778 4.602-.304 4.906-.391 3.4298-.5646-1.563-.7819-.9551-.7818v-.8252l-4.2982.0868-4.5586.3474h-4.3415l-.6078-.8252.3039-1.6505.9985-.4779 3.1694-.5212 3.7337-.5211 2.6918-.6516 2.6917-.6515 1.9971-.8688 3.0391-.3908 2.9957-.3041 1.5195-.1737 3.4298-.0869 3.2562-.3041 2.7351-.4343 2.6918-.5212 2.4313-.5212 3.0824-.695 1.9537-.7385 2.0839-.6516.6512-.8686-2.3443-.5212.7814-.9121 1.4762-.6951 2.301-.4344 2.4313-.5212 2.2576-.695 1.7366-.8686 1.0854-1.0425 1.6063-.6082 2.6484.1304 1.0853.7384 2.6484.0868.0868-.8252 1.1288-.8687 2.3879.2171.5644.8254 2.6483.1302 2.8654-.3908 2.7786-.2607 2.5181.1303.9551.9122 2.4313-.7384 2.2577-.391 2.518-.304 2.4747-.3041 2.2577-.5212 2.4746-.3474 1.9103-.4778 1.3459-.7819 1.6497.5647 2.3009-.3041 1.6065 1.0425 1.259.7818 2.5181-.4344.9986-.8686 2.2576-.6082 2.9088.1303.8684.8253 1.8234-.8253 2.3879-.2606 2.6048-.0869 2.3445.0435 2.4746.2606 2.3879.1303 1.042.7384 1.4327.6516 2.4312-.391 2.605-.0868h2.518l2.4748-.0434 2.2141-.3042 2.3445-.2606 1.9536-.6081 2.084-.3909 2.2575-.2171 1.6933-.6082 1.2156-1.2162 1.259-.7382 2.3011.3473.8683.7819 1.9103.5212 2.301-.1738 1.5629.7818 1.6498.5648 2.2577-.5212.7815-.9557 1.997-.3909 2.3011-.7384 2.1707-.3041 2.605-.4342 1.7365-.4778 1.8235-.5212 1.7366-.4778 2.0839.2606 1.9972-.7818 1.4326-.6082 2.084.0435 1.8234-.5212.4342-.7818 1.8669-.6082 1.8234-.4344 2.2142-.3475 2.0405-.1737 1.9538.1303 2.0838.2172 1.7801.6081.217.9556 1.9538.7384 1.3458.6081 2.6485.2606 1.4761.6082 1.8234.608 2.1273.1303 1.78-.4343 1.9104-.9122 2.0839.4777 2.1707.2607 2.084.2606 2.1707.1738h2.2143l1.8233 2.302-.0868.5647-.2605.999-2.1273.5646-1.7368.8253.3041.8688 2.4747-.0436-.304.8688-1.1287.8253-1.042.9122 1.6932.6949 2.5615.2172 2.5615-.3909 1.2156-.8688.7382-.8252 1.2155-.695 1.3893-.6515.5644-.7819 1.1723-1.0859 1.3892-.2171 2.5181-.0869 2.2142-.2607 2.2576-.3474 1.0853-.8688.6514-.8253 1.5195-.8251 2.1707-.5646 1.8669-.4344 1.2157-.7385 1.259-.3908 1.6063-.3476 2.2143.2172 1.9969-.2172 2.1709-.2606 2.4313.1303 1.6063-.608 1.1289-1.4769.8248.6081 1.0419 1.0425 1.8669.4343 2.1274.1738 2.1274-.2606 2.2576.1737 2.0838.0434 1.3894-.2171 1.8668.1303 1.6933.4778 1.9971-.304h2.3878l2.0406-.3041 2.3009.3041 1.4763-.7385 1.1286-.7384 1.5197-.6081 2.7786-1.6506 1.4325.3041 1.6933.6081 1.4761.7819 2.822 1.3464 2.1709.0435h2.0404l2.3879-.2606 2.3878-.3041 1.8235-.608 1.5195-.6516 2.4747-.0869 1.6499-.4778 1.7366.4344 1.1287.6949 1.5629.695 2.4312-.0868 1.5197.5646 2.6483.5647 2.7785.2172 2.3011-.1738 1.7366-.6949 1.4762-.695 1.997-.1738 1.9972.3041 2.3008.2171 2.084-.3474h1.9973l1.9537.2172 2.0404.2172 1.9972-.391 2.3878-.3474 2.2576-.087h2.5181l2.0406-.2172 1.997-.1736.6078-1.0859.0868-.9122 1.3893.608.3908.9991.738.9122.9118.7384 1.8669.3909 2.518-.1303 2.9088-.0434 1.9971-.1304h2.9089l2.084-.0434 2.9088.0869 2.4746.1737 1.563.695-.4341.8253 1.4327.6515 2.3878.5212 2.4746.5648 2.8655.3907 2.9956.3477 2.2577.3473 2.5181.0436 1.4328-.7386 1.9535.6081 1.6934.6951 1.9536.5211 2.6919.2172 2.5613.2606 1.0855.8687 2.518.5212 1.6932.782 2.4747.3474 2.5615-.0434 2.3879.1302 2.6483-.0434 2.6482.1738 2.4749.304 2.3009.5213 2.3011.4344 1.563.6514-.2606.8688-1.1722.7819-.9985.999-.7816.7818-1.0419.9121-2.9088.3476-1.3025.7818-2.8655.4777-.9984.8688-1.5196.8253-1.6063.695-.912.9121-.5642.8253-.2172.9991.0435.8252 1.259.8686.4777.8253 1.042.7819 4.1245.3039.8682.9557-3.9942.3475-3.3864.4777-4.2112.087-1.867 1.2596-.3907 1.0424-.9552.8253-1.1721.8253 2.9522.7384 1.1289.9122 1.9101.8252 2.6918.7385 3.0825.695 3.3431.6949 5.0796.695 1.1285 1.0859 6.3822.4778.428.1695 1.656.6557 6.1215-.5646 5.0796.695 3.8188.5339v11.7187h-798v-11.7187l.1275.0179 1.9591-1.2902 3.9942.695.2571-.0776.618-.1865.7493-.2261.651-.1964.3228-.0974.3337.0052.2311.0361 3.2083.9231 2.8062-.9231.5042-.1261 6.5123-.3909 2.1086.517 1.0413.2649 3.343.7384 6.2952.5646 4.9928.695 8.5527.5213 6.3821-.6082 9.4212.4344 5.34.695 5.8612-.6516 6.165-.6081.4775-1.0424-8.7265-.087-7.1635-.5212-1.8669-.8687-5.9479-.4778.3908-.999.8249-.9121.8249-.8254-.4342-.9121-3.6903-.6081-1.6933-.7819-3.4297-.6949 5.3835.1303 5.123-.3475 3.2128.7385 3.9507-.6516 3.647-.8253 1.78-.7384-.7815-.9122-2.8654-.6081-3.2562-.6514-4.5586-.1304-3.9942-.304-4.2983-.2172-1.4326-.8253-2.8653-.695-1.7367-.7819-.6946-2.5192 1.0854.2173 1.997.695 3.6468-.2173 3.5169-.304 1.8234.9555 3.5167-.217 2.9522-.4779 2.7785-.6081 2.5181-.7383 3.3429-.2172-.0867-.8254-.7815-.8252.6512-.7819 2.8655-.3909 1.3025.7385 3.3863-.4344 2.5616-.5647 3.1693-.0435 2.9956-.2171 2.9956-.5212 2.388-.4778 2.6917-.4778 1.7366.1302 1.5196.1738 3.2994-.304 2.9523.3908 3.0391-.0434 2.9088-.304 2.9957.2172 3.2996.2172 3.0825-.087 3.2127.0434 3.2996.0436 3.0391-.087 2.2575-.6515 2.6918-.3475 2.7786.4778 2.6484-.3909 2.3878-.7818 1.4327.6949.7815.7818 1.4328.7385 2.3009-.6515 2.6483.8252 2.9957.2606 2.5615.6081 3.1259-.1302 2.822-.391 3.343.0869 2.9957.3041 3.039.3908 1.1722-.9555-1.4327-.7384-1.0854-.7819-2.8653-.1737-1.259-.8253-.4776-.8253-.7815-1.6505 1.6931.304 2.9089.1303 2.8655-.1303 2.6049.3475 2.2576.6515.9551.7818 2.9957.1304 2.8653-.304 3.0392-.4344 2.7351-.2606 2.2576.5212 2.9522-.1738 1.9103-1.6939 1.78.999 2.5616.3909 2.7786-.2172 1.8234.8688 2.9088.0868 2.6918.2606 2.6483.4778 1.7367-.8252.8682-.7819 2.2142.8687 3.0391-.2172 2.2577.4778 1.5195.7384 2.9522-.2171 2.301-.4779 2.2576-.5646 2.6918-.304 3.1259-.2607 2.8221-.304 2.1707-.4778 1.3024-.695.521-.9556-.2605-.9121-.6947-.8688-.7814-.8687-.6946-.8686-.5644-.782-.1303-.8687.2171-.8686 1.042-.8254.8683-.9121.3472-.8686-.434-.9556-.2605-.8688 1.0853-.9989 1.2156-.6516 1.4328-.8252 1.5195-.6951 1.7801-.6514.8683-.9556 1.2156-.6082 1.3893-.5647 2.1274-.1302 1.3893-.695 1.5629-.4344 1.8234-.2606 1.6064-.5647 1.2591-.695 1.7366-.2606 1.3024.5648-.8249.7383z"/><path fill="#79726A" d="m249.8208 305.7809 2.8817 1.33 3.1033.5541-.9975 1.1084-2.1058.1108-1.1303-.7829-.734.8965-1.901.6885-2.4017-.25-1.6093-.6664-2.3221-.3205-2.7891-1.2385-2.2639-1.1917-3.053-2.4827 1.8274.4653 3.1121 1.4807 2.9403.7956 1.1437-1.0163.7188-1.5175 2.0434-.9154 1.5773.2615.0002.0003.8512 1.0277z"/><path fill="#79726A" d="m270.2142 299.685 1.7733.9975-.665.7759-2.9925.665-.9975-.7759-1.8842.9975-1.1083-.9975 2.66-1.33 1.8842.5542z"/><path fill="#79726A" d="m555.7873 296.6039-3.4026.1441-.0554-1.1804.327-.9144.1496-.4544 1.4298.6982 2.0947.2771.0776.4212z"/><path fill="#79726A" d="m722.2989 276.8369 2.1416.765 1.2069-.304 1.7305-.4262 1.3295.1489.157 2.6312-.7594.7638-.2289 1.7833-.7746-.607-1.5389 1.5448-.4589-.1191-1.3631-.069-1.3665-1.8974-.3033-1.4633-1.2791-1.9309.057-1.0165z"/><path fill="#79726A" d="m783.5285 277.1173.5029.9153 1.5764-.8984.641.9365.0021.9329-.8248 1.0267-1.449 1.6333-1.1338.8917.8176 1.0663-1.7102.0274-1.8967.8353-.5936 1.451-1.2601 2.2429-1.7406.9905-1.1064.6327-2.0415-.0472-1.4355-.7309-2.4092-.1558-.3718-.814 1.1909-1.6442 2.7871-2.1878 1.4312-.4171 1.5925-.8434 1.8999-1.1607 1.3304-1.1503.9856-1.6522.8401-.5608.3292-1.2376 1.5547-1.0244z"/><path fill="#79726A" d="m787.0566 266.5601 1.6062 2.3334.0465-1.5137 1.0004.6046.3316 1.6767 1.7838.7224 1.4976.1773 1.2669-.8455 1.1233.2561-.5372 1.9672-.6745 1.2935-1.6924-.0456-.5918.6738.206.9536-.3261.4124-.8375 1.1944-1.0985 1.518-1.7132.8838-.3805-.5817-.9242-.3194 1.2782-1.8234-.7259-1.2198-2.3853-.8869.0625-.803 1.6016-.7734.3739-1.7066-.1029-1.4334-.8978-1.4853.0598-.3907-1.0596-.9151-1.7441-1.9615-.9269-1.5694.8224-.1739 1.2065 1.2314 1.7247.5748z"/><path fill="#79726A" d="m770.4494 235.5347-.8423.532-1.2199-.5991-1.5857-.9978-1.4287-1.1743-1.4671-1.5629-.3067-.7517.9539.0318 1.2415.7537.9753.7537.7093.6206 1.8176 1.3744z"/><path fill="#79726A" d="m795.3948 224.8502.7636.6396-.3666 1.1574-1.3744.3045-1.2218-.2741-.2138-.9746.8553-.7614 1.0079.2741z"/><path fill="#79726A" d="m797.5905 223.6564-1.4166.467-.2842-.8266 1.1078-.4548.7024-.1217 1.3001-.6915v1.082z"/><path fill="#79726A" d="m1.1832 222.9923-.1832.1185v-1.082l.4581-.1025z"/><path fill="#79726A" d="m772.0561 222.9137-.7308.2916-.7429-.9706.0815-.5944z"/><path fill="#79726A" d="m770.4221 219.5169.3598 1.7869-.5959-.2781-.4612.1202-.3176-.612-.0459-1.6985z"/><path fill="#79726A" d="m510.9586 216.462.3567 2.6667.5744 1.0368-.2204 1.063-.392.6521-.753-1.299-.4167.6561.4228 1.6421-.1968.9399-.6117.5121-.1396 1.8775-.873 2.584-1.0934 3.0548-1.3694 4.1998-.849 3.0821-1.0019 2.5707-1.8028.5249-1.9351.9376-1.2766-.566-1.7597-.793-.6117-1.1697-.1463-1.9652-.7805-1.7671-.2028-1.5949.397-1.5981 1.0206-.3838.0059-.7378 1.0595-1.6805.1996-1.4118-.5142-1.0495-.4199-1.3979-.1771-2.0425.7745-1.2401.2971-1.406 1.1048-.0816 1.2365-.4545.8207-.401.9737-.0298 1.2634-1.2631 1.8242-1.3652.6652-1.1152-.3019-.9473.9416.2665 1.2219-1.5404.0409-1.3329.734-.9915.7734.9515.5884.9431z"/><path fill="#79726A" d="m718.2287 216.9228.7986 1.7393 1.4223-.836.7341.9383 1.0636.8657-.2277.9825.4727 1.9007.3365 1.1066.5583.2705.6016 1.8946-.2142 1.1492.7177 1.5033 2.402 1.1581 1.5662 1.0534 1.4869.9649-.2903.537 1.2679 1.3899.8621 2.3985.8845-.4871.899.9606.5416-.3408.3819 2.3493 1.573 1.3611 1.0293.846 1.7327 1.7946.6228 1.7815.0572 1.2638-.1531 1.3721 1.0564 1.8836-.1271 1.9618-.3835 1.0266-.5982 1.9773.0451 1.2711-.4389 1.5889-.9789 2.0162-1.6423 1.0891-.8094 1.7172-.739 1.0958-.6571 1.9132-.8554 1.1048-.5609 1.6588-.2861 1.527.1134.7009-1.2711.7701-2.481.0807-2.0457.9091-1.0188.8586-1.3393.9514-1.836-.9797-1.3581-.3909.3441-1.1554-1.2115.4192-1.9412 1.6052-1.9164-.6011-1.257-.3508-1.2674-.1585-2.1458-.641-1.4328-1.3664-.4114-1.6832-.5152-1.1199-1.0892-.8991-2.1325-.267.7286-1.0752-.5362-1.646-1.0826 1.5342-1.9723.4072 1.1592-1.2262.3359-1.2792.8561-1.0857-.1768-1.6414-1.8033 1.8903-1.3849.7581-.849 1.763-1.7309-.912.0688-1.1764-1.3872-1.6075-1.1693-.8306.4167-.5117-2.8443-1.3433-1.5576-.0634-2.1319-1.0791-3.969.2097-2.8703.7937-2.5227.7399-2.1151-.147-2.3498 1.1367-1.9218.5115-.4272 1.1623-.8185.9007-1.8812.0538-1.392.1972-1.9592-.4043-1.5936.242-1.5219.1017-1.3185 1.1821-.6463-.1002-1.1119.6266-1.0657.7047-1.617-.0871-1.486-.0008-2.3514-1.4157-1.1915-.4209.0483-1.2704 1.1006-.3018.3759-.5047-.0783-.7963.271-1.5412-.2483-1.3137-1.172-2.2407-.3632-1.2654.0953-1.2627-.8824-1.4428-.0564-.6513-.9818-.8829-.2764-1.7364-1.2666-1.7547-.3071-.9457.974.9587-.7479-2.0565 1.0993.6427.6561.8584-.037-1.1353-1.0971-1.7453-.2126-.6982-.5139-.6632.2406-1.2822.4543-.5456.3024-1.1088-.2369-1.2957.916-1.5951.1674 1.6882.9365-1.525 1.8008-.7411 1.08-.9454 1.694-.8135 1.008-.1731.6101.2733 1.7467-.8261 1.3445-.2458.3363-.4857.5867-.2023 1.2252.0522 2.3298-.649 1.205-.9841.5659-1.1847 1.3001-1.1253.0997-.8846.0579-1.205 1.5513-1.8837.9337 1.9138.9433-.4423-.7894-1.0474.6957-1.0755.978.4802.2692-1.6866 1.2112-1.0906.5345-.8749 1.1146-.3775.0348-.6194.9739.2586.0392-.5571.9748-.3174 1.0713-.2989 1.6376 1.0173 1.2303 1.3129 1.3874.0151 1.4096.2079-.4697-1.2172 1.0619-1.7777.9993-.5793-.3457-.5538.9627-1.266 1.3426-.7819 1.1341.2633 1.8624-.4176-.04-1.1328-1.6238-.7298 1.1804-.322 1.4682.5495 1.1777.909 1.8669.5672.633-.2243 1.3741.6814 1.2949-.6347.8328.193.5189-.4258 1.0178 1.0966-.5907 1.1866-.8417.8955-.7618.0738.2568.8861-.6512 1.1077-.7873 1.0894.1585.6258 1.7623 1.2247 1.7072.7105 1.1418.7632 1.6021 1.3134.625-.0021 1.1602.5675.337.6848 2.1162.7519 1.4634-.7575.4337-1.1904.45-.9824.2751-1.2155.6738-1.7636-.3077-1.0719.1599-.6449-.2563-1.2687.2905-1.67.4251-.4503-.3452-.7402.5357-1.1751.4208-1.2179.0559-.6325.8236-.8302.6252 1.0843.154 1.3906.5523.2681.0947.931.8057 1.1277.1663 1.2547z"/><path fill="#79726A" d="m759.3638 209.6501.6199.7617-1.5486-.0141-.8429-1.3638 1.3247.5363z"/><path fill="#79726A" d="m667.5863 209.1111-.9324.0423-2.9419-1.5532 2.067-.4359 1.1648.6752.7752.6733z"/><path fill="#79726A" d="m756.5558 208.2984-.8637.0494-1.3592-.2243-.4642-.3415.1395-.8801 1.463.3488.7217.4652z"/><path fill="#79726A" d="m758.3906 207.6933-.3338.4086-1.6428-1.9213-.4617-1.3245h.7538l.7979 1.7733z"/><path fill="#79726A" d="m675.833 208.8904-1.8974.4876-.266-.266.1996-.7536.9532-1.3521 2.1915-.8806.2606-.5229 1.9082-.4983 1.5464-.075.6928-.2769.8394.2748-.8156.6006-2.31.9704-1.8561.6365z"/><path fill="#79726A" d="m661.345 204.3588.7994.5912 1.3695-.1811.5499.9424-2.5627.4451-1.5355.2976-1.1916-.0176.7616-1.2763 1.2154-.0174z"/><path fill="#79726A" d="m672.4362 204.3556-.3249 1.2315-3.3305.6292-2.9484-.2732-.0077-.8103 1.7604-.4608 1.3889.6645 1.4757-.1688z"/><path fill="#79726A" d="m754.3896 204.8944.094.4455-1.7373-.9401-1.2137-.7966-.8312-.738.3299-.2258 1.0197.532 1.8177 1.0197z"/><path fill="#79726A" d="m749.2102 202.701-.4412.1263-.9695-.5052-.9103-.9109.1141-.3693 1.3237.9361z"/><path fill="#79726A" d="m640.782 201.4372 4.2466.221.4885-.9137 4.1124 1.0659.8068 1.4368 3.3253.4041 2.719 1.3174-2.5293.8445-2.4378-.893-2.0062.0604-2.3001-.1642-2.0746-.3979-2.5679-.8467-1.6271-.2195-.9219.2772-4.0424-.9128-.3846-.9531-2.0285-.1629 1.5209-2.118 2.6897.1309 1.789.8662.9194.169z"/><path fill="#79726A" d="m698.6396 200.1886-1.1405 1.5092-.2158-1.6686.3936-.7967.4639-.7493.5041.6485z"/><path fill="#79726A" d="m745.5341 201.531-.6208.2217-.9598-.8513-.9705-1.4079-.4767-1.6884.3067-.2143.2383.6595.6715.5028 1.0747 1.4051 1.0468.7522z"/><path fill="#79726A" d="m736.8952 198.5564-1.1608.1823-.3497.6216-1.2123.5387-1.1377.5187-1.1776-.0027-1.8175-.6439-1.266-.6182.1838-.6858 1.9874.3236 1.2129-.1735.334-1.0626.3181-.0549.2153 1.1768 1.2648-.1693.6255-.7585 1.2374-.7905-.2439-1.3062 1.3277-.0421.4476.3639-.0444 1.2296z"/><path fill="#79726A" d="m682.0691 194.081-.8297.7357-1.532-.407-.4317-.9534 2.2424-.1063z"/><path fill="#79726A" d="m689.2115 193.2712.8057 1.6951-1.8715-.9136-1.8516-.1855-1.2514.1464-1.5335-.0781.5253-1.2187 2.7379-.092z"/><path fill="#79726A" d="m739.4604 196.3883-.6932.5907-.4181-1.3085-.5157-.8565-1.0037-.7264-1.2612-.9457-1.601-.6516.6161-.5353 1.197.6207.7538.4876.9309.5321.8867.9309.8423.7094z"/><path fill="#79726A" d="m697.3511 188.9667.6191 3.585 2.2942 1.3269 1.8524-2.3513 2.5435-1.3378 1.9706-.0018 1.8957.7727 1.6442.793 2.3797.4236 3.846 1.5273 4.098 1.2685 1.5277 1.1357 1.2338 1.1144.3373 1.3059 3.6933 1.37.5387 1.1756-2.0398.2386.4898 1.4772 1.979 1.4543 1.4396 2.3509 1.2696-.0737-.0891.9819 1.7114.3767-.6648.4181 2.3559.9326-.2461.6407-1.4679.1547-.5454-.5746-1.9045-.2491-2.2391-.3335-1.7237-1.4142-1.2581-1.219-1.1513-1.9399-2.8912-.9693-1.8777.6322-1.3538.7319.2827 1.6349-1.7411.762-1.2417-.3707-2.293-.0924-1.9738-1.8193-2.2513-.4458-.546.6315-2.8085.0682.9413-1.804 1.3954-.6154-.5779-2.4104-1.0642-1.8608-4.2972-1.8772-1.8279-.1853-3.3288-2.0484-.6544 1.0773-.8506.1954-.5032-.8129-.007-.9631-1.6935-1.0889 2.3874-.7983 1.5809.0431-.1858-.5881-3.2448-.0045-.8781-1.3197-1.9804-.4093-.9382-1.0968 2.988-.537 1.1362-.7225 3.5587.9103z"/><path fill="#79726A" d="m677.6164 183.2661-1.781 2.1988-1.6659.4262-2.1333-.4334-3.6938.1106-1.9366.3192-.3152 1.6778 1.984 1.9711 1.1968-1.004 4.1335-.7543-.1821 1.0209-.9658-.322-.9624 1.2987-1.9513.8593 2.0977 2.8408-.405.7613 1.993 2.5585-.0192 1.4561-1.1833.6517-.8692-.7795 1.0711-1.8149-2.1753.8582-.5515-.6136.2876-.8558-1.5982-1.2998.1645-2.16-1.4784.6738.1875 2.5845.0902 3.1713-1.4058.3218-.9524-.6506.6356-2.0404-.3431-2.1391-.9321-.0164-.6884-1.5184.9159-1.4517.3157-1.76 1.1141-3.3414.4648-.9137 1.8844-1.6464 1.7313.6545 2.7946.3076 2.5491-.0929 2.1911-1.6097z"/><path fill="#79726A" d="m685.259 183.9032-.116 1.9372-1.1433-.2171-.3372 1.3488.9132 1.1703-.6207.266-.8945-1.4041-.6583-2.8336.4456-1.771.7356-.8067.1591 1.2105 1.3088.1944z"/><path fill="#79726A" d="m634.5625 199.3861-2.4545.0464-1.8668-1.8531-2.8461-1.8111-.9489-1.3436-1.6782-1.8052-1.1008-1.6614-1.6858-3.1031-1.9468-1.8476-.6511-1.9058-.8172-1.7303-1.9989-1.3958-1.1585-1.8966-1.669-1.2415-2.3123-2.4426-.1947-1.1284 1.4271.0894 3.4315.4282 1.9602 2.1678 1.7143 1.503 1.2224.9221 2.1001 2.3828 2.2534.0348 1.8626 1.5184 1.2825 1.8561 1.6881 1.0126-.8883 1.8099 1.2704.7698.7963.0568.3757 1.5462.7723 1.237 1.6275.196 1.0784 1.403-.5567 2.757z"/><path fill="#79726A" d="m661.291 182.3621 2.4851 2.0514-2.6265.2615-.7393 1.5112.096 2.0088-2.1315 1.516-.0582 2.2075-.855 3.3897-.3264-.7884-2.5182.9974-.8782-1.355-1.5804-.1253-1.1054-.7102-2.6353.7971-.8087-1.0727-1.4521.1218-1.8274-.2558-.3389-2.9729-1.1061-.6161-1.0642-1.8962-.3086-1.9393.2582-2.0538 1.317-1.4731 1.6245.7596 1.7129-.4142.446-1.8768.9462-.418 2.6571-.4799 1.5901-1.7536 1.0885-1.4018.8777-.8293 1.8858-1.2141 1.7069-1.5416 1.118-1.7325.8967-.0073 1.1389 1.1214.1012.9635 1.46.618 1.8492.6669-.1579.8683-1.4873.11.3959 1.0824-1.6321.7551-1.2609 2.0019 1.6295 2.0986z"/><path fill="#79726A" d="m680.1353 167.7608.2254 1.4726.1306 1.2435-.7551 2.0285-.8099-2.2598-1.0364 1.1244.7078 1.6333-.6354 1.0388-2.6084-1.2864-.6231-1.6044.676-1.0539-1.4042-1.0483-.6963.9191-1.0431-.0853-1.6403 1.2367-.3671-.6488.8699-1.8683 1.3966-.6235 1.2087-.8351.7836 1.0034 1.6853-.607.3617-.9892 1.5666-.0589-.1313-1.7142 1.7968 1.0512.186 1.1163z"/><path fill="#79726A" d="m580.0333 172.6764-1.9278.5071-1.0549-1.7625-.393-3.1862 1.0034-3.5981 1.5317 1.2317 1.0319 1.561 1.072 2.3079-.3339 2.3081z"/><path fill="#79726A" d="m264.9274 164.0029-1.8509.2438-.399-.1995.6428-.6096-.0443-.8756 1.2746-.2881.4655.0776z"/><path fill="#79726A" d="m674.8277 163.6287-.7963.7286-.6944 1.4006-.6961.6563-1.3651-1.5321.4567-.5934.5564-.6209.2445-1.3759 1.2224-.1302-.3571 1.4923 1.6407-2.1398z"/><path fill="#79726A" d="m662.6852 165.7621-2.9489 2.1033 1.0866-1.5503 1.6014-1.369 1.331-1.5335 1.1618-2.202.395 1.8074-1.4635 1.2206z"/><path fill="#79726A" d="m670.1752 160.0533 1.3306.6862 1.4107-.0032-.043.9259-1.0266.9413-1.4078.6656-.0781-1.03.1574-1.1308z"/><path fill="#79726A" d="m678.1973 159.4527.6227 2.4751-1.7103-.5882.0463.744.5423 1.3679-1.0543.4967-.0923-1.5591-.6674-.1151-.347-1.342 1.3044.1768-.0288-.8392-1.3549-1.6926 2.1288.0489z"/><path fill="#79726A" d="m669.3857 157.4424-.5878 1.9153-.9494-1.106-1.1315-1.6889 1.899.0814z"/><path fill="#79726A" d="m668.9289 145.396 1.3661.6329.6836-.5772.2017.5632-.3606.919.7567 1.5889-.5838 1.8422-1.3068.7346-.3496 1.7871.496 1.7654 1.1751.2443.9805-.2624 2.7687 1.229-.211 1.2066.723.5326-.2302 1.0215-1.7277-1.088-.8188-1.1646-.5703.8137-1.4114-1.327-2.0133.3276-1.1033-.4898.1125-.9163.6925-.5639-.6616-.5126-.2864.7988-1.0944-1.2737-.3314-.9653-.0823-2.1221.8926.7294.2296-3.4678.7222-2.0086z"/><path fill="#79726A" d="m254.6066 146.0079-.5678.5589-1.6687-.0131-1.295.0781-.1291-.9485.3142-.3239 1.8137.0129 1.133.1953z"/><path fill="#79726A" d="m229.5327 146.8054-.6734.3705-1.2407-.3557-1.2672-.8077.266-.5067.9318-.1544.5049.0746 1.4917.1988 1.1777.5324.3673.6069z"/><path fill="#79726A" d="m239.1151 142.3649 1.9225.3481.2772-.3778 1.7303.0102 1.3131.5706.5842-.0557.4024.7863 1.2128-.0442-.0714.6606.9863.0801 1.0894.8132-.8232.9023-1.0543-.4821-1.0176.093-.7291-.1055-.3997.4043-.851.1366-.3373-.5378-.7329.3182-.8873 1.5179-.5707-.3524-.1122-.6372-1.4723-.3767-1.0461.1537-1.3525-.1603-1.0371.4144-1.1872-.6906.1953-.7146 2.0401.3078 1.6728.1779.7981-.4935-1.0125-.9603.0167-.8467-1.3985-.3457.4992-.6121z"/><path fill="#79726A" d="m644.5852 145.0096-1.9152 1.0655-1.8176-.6871-.0643-1.9068 1.0925-1.0045 2.4218-.6211 1.2745.0526.4954.8459-.974.9754z"/><path fill="#79726A" d="m55.215 144.1117-.3238.3708-.5508-.3174.0634-.6196-.3667-.807.1104-.2466.3848-.3615-.1529-.436.1285-.2067.1686.0411.8488.3745.3937.1922.3597.2969.5649.7767-.0534.1228-.866.4734z"/><path fill="#79726A" d="m54.0243 140.6526-.743.1586-.3819-.4668-.2548-.1802-.0197-.1385.2172-.19.788.2107.5795.34z"/><path fill="#79726A" d="m52.5192 139.4714-.0689.2396-1.1878-.0644.1661-.27z"/><path fill="#79726A" d="m50.5362 139.1492-.1201.128-.1587-.0285-.7715-.0779-.2818-.5026-.0861-.0885.5928-.3056.1853.1424z"/><path fill="#79726A" d="m46.785 137.6866-.2629.2195-.7466-.4042.1147-.1615.3382-.2172.511.0471z"/><path fill="#79726A" d="m223.3771 135.9503.8823.8115 2.0705-.2504.785.5209 1.8772 1.3728 1.3801.9998.7297-.0304 1.322.452-.1614.6241 1.634.0913 1.6755.9072-.2629.5193-1.474.2814-1.492.11-1.5272-.1753-3.1739.2159 1.486-1.2366-.9034-.5758-1.4289-.1482-.766-.6399-.5254-1.2623-1.2527.0863-2.067-.5944-.6651-.465-2.8893-.3435-.7737-.4324.8312-.5538-2.1743-.1135-1.5928 1.1519-.9184.0309-.3178.5408-1.097.2424-.9485-.2101 1.1701-.6848.4804-.7998 1.0022-.4929 1.132-.4321 1.6783-.2121.537-.2435 1.9146.1581 1.7416.025z"/><path fill="#79726A" d="m228.1315 133.7459-.5438.1103-.5632-1.2771-.83-.6417.4824-1.4069.6669.0894.7759 1.8398z"/><path fill="#79726A" d="m668.606 135.8936-.95 1.8183-1.1681-1.8715-.2525-1.6434 1.3045-2.1772 1.7741-1.678 1.0113.6602-.3845 1.3374z"/><path fill="#79726A" d="m227.499 127.4944-2.4162.3546-.1551-.8201 1.0418-.1774 1.463.0665z"/><path fill="#79726A" d="m229.3167 127.4722-.3825 1.5757-.4076-.2842.0364-1.1585-.9931-.8759-.0044-.2546z"/><path fill="#79726A" d="m698.4485 110.7159.2836.7601-1.2479 1.3414-.9098-.7111-1.1365.5152-.5883 1.2967-1.4447-.6313.0179-1.0513 1.2262-1.3226 1.2604.2565.9114-.9317z"/><path fill="#79726A" d="m476.6445 107.3413-1.4977.944.1614.415.0693.1783-2.2722.9005-1.0851-.2877-.5179-.8902 1.0531-.0816.1567-.0121.3203-.5347 1.5966.0299z"/><path fill="#79726A" d="m452.535 107.2673 1.2118.747 1.7253-.1263 1.6496.1573-.0536.3857 1.2081-.2659-.2771.6539-3.1921.1884.0223-.3658-2.7044-.4322z"/><path fill="#79726A" d="m434.4035 101.6676-.7983 1.7448.3317.6868-.4653 1.1399-1.6952-.8349-1.1271-.2392-3.0939-1.127.3102-1.1381 2.594.2026 2.2612-.2414z"/><path fill="#79726A" d="m420.4155 95.0646 1.3299 1.5738-.3113 2.9318-1.0079-.1399-.9042.7401-.8393-.588-.0887-2.6743-.506-1.2672 1.2191.1108z"/><path fill="#79726A" d="m712.4977 104.0818-.8349 1.7691.3864 1.1108-1.1544 1.5622-2.8324 1.043-3.8967.1359-3.1579 2.5303-1.4896-.8518-.0921-1.6569-3.8551.489-2.6235 1.044-2.5949.0425 2.2475 1.631-1.4791 3.7675-1.433.9327-1.0726-.8615.5436-1.9977-1.4031-.6447-.9005-1.5201 2.0958-.6829 1.1627-1.3934 2.2295-1.146 1.6258-1.5154 4.4125-.6611 2.3702.4533 2.3193-3.9409 1.478 1.0586 3.2518-2.2169 1.2609-.8611 1.3929-2.7106-.38-2.4927.9364-1.4002 2.3567-.4069 1.2087 3.0744-.0657 1.7972-2.0507 2.2318z"/><path fill="#79726A" d="m421.1914 92.9753-.7321 1.7124-1.0064-.4513-.5132-1.4916.4473-.8238 1.4275-.8464z"/><path fill="#79726A" d="m719.0009 88.4941 1.5589.4726 1.568-.9395.4928 2.4885-3.2883.6068-1.9414 2.2015-3.4854-1.5153-1.2063 2.4255-2.4654.0333-.3049-2.2038 1.0962-1.7057 2.3685-.1232.6459-3.0663.6554-1.7276 2.6051 2.3078z"/><path fill="#79726A" d="m258.877 83.2275 1.6076.2974 2.0553-.0605-1.0902.9083-.8211.1445-2.8118-.9409-.5538-.7422.8374-.6839z"/><path fill="#79726A" d="m262.996 77.5638-1.0792.0397-2.873-.695-2.0612-1.047.7668-.1865 2.9147.5558 2.267.9263z"/><path fill="#79726A" d="m126.2195 78.8828-1.1147.3085-3.6401-1.0067-.6649-.7869-1.984-.7758-.399-.6318-2.2817-.3989-.8539-1.2063.191-.5131 2.3271.4834 1.3601.3362 2.0837.2347.7536.7648 1.0956 1.0523 2.2128.915z"/><path fill="#79726A" d="m275.5696 74.0572-1.4671 1.9389 1.447-.7488 1.4887.475-.7779.7729 1.9668.6077 1.0227-.5402 2.2105.6817-.686 1.6234 1.5514-.3791.2826 1.1763.6884 1.3779-.9333 1.9508-1.0026.0825-1.4574-.4185.4811-1.8135-.6176-.2817-2.5719 1.9225-1.3227-.077 1.5655-1.0415-2.1271-.5386-2.3816.1324-4.3021-.0677-.3402-.6564 1.3808-.7804-.9644-.6022 1.8616-1.3353 2.2901-3.5304 1.3744-1.2617 1.9234-.764 1.0285.0972-.4284.6011z"/><path fill="#79726A" d="m105.8261 66.6247 2.1281-.1773-.6639 2.5167 1.9295 1.7826-.884-.0043-1.3357-1.0137-.8192-1.0204-1.1186-.6904-.4102-.9744.1322-.7069z"/><path fill="#79726A" d="m718.4197 73.9229 2.2303 3.9261-3.2811-.7318-1.3639 3.203 2.1609 2.2718-.0625 1.549-1.6793-1.3363-1.4534 1.7157-.4103-1.8602.2471-2.1595-.2526-2.3919.5128-1.6757.0979-2.9641-1.2987-2.1792.1961-3.0291 2.049-1.0201-.8804-1.027.9865-.3113.576 1.4659.7674 2.1365-.0567 2.1814z"/><path fill="#79726A" d="m384.9514 70.5701-3.9297 1.3097-3.1376-.3351 1.7973-2.3146-1.1576-2.2537 3.0158-1.736 1.6754-1.0355 1.8583-.0914 2.376 1.3705-1.1879 1.5229.3655 1.5836z"/><path fill="#79726A" d="m428.1295 63.1446-1.33 1.7954-2.3196-1.2521-.3096-.9201 3.2519-.7347z"/><path fill="#79726A" d="m60.836 59.8066-2.214.8449-1.1334-.5721-.3426-1.0383 2.0132-.7878 1.1838-.3378 1.4717.1497.9391.688z"/><path fill="#79726A" d="m393.3389 56.4391-2.3692 2.3984 2.2584-.3037 2.4288.0116-.5779 1.8061-1.9928 1.9866 2.292.1414 2.1502 2.8485 1.5174.356 1.3642 2.5256.6318.8756 2.6856.4222-.2694 1.4176-1.1293.6501.8852 1.1467-1.994 1.1609-2.9656-.0206-3.7738.6096-1.0336-.4364-1.4656 1.0385-2.0505-.2515-1.5573.8464-1.1782-.4426 3.2509-2.3282 1.9842-.4788-3.4791-.3712-.6271-.8821 2.3163-.6871-1.214-1.194.4212-1.4519 3.2982.2007.326-1.2869-1.5184-1.3965-2.6914-.39-.5284-.5999.8056-.9906-.729-.6107-1.1935 1.0481-.1299-2.1366-1.1194-1.1305.805-2.2916 1.722-1.7981 1.77.1755z"/><path fill="#79726A" d="m32.9662 53.6129-1.3602.3448-1.4531-.4144-1.3454-.6022 2.1889-.3793 1.7586.2007z"/><path fill="#79726A" d="m224.2941 48.6283-.8683 1.1651-.9798-.1885-.5821-.6614.1036-.1531.8557-.6651.9074.0485z"/><path fill="#79726A" d="m218.4589 47.4044-2.5942 1.2227-1.5651-.0512-.4856-.5996 1.6474-1.0225 3.0446.0211z"/><path fill="#79726A" d="m19.3282 45.0288 1.3681.4219 1.3817-.2279 1.7924.5849 2.2013.2962-.1828.2414-1.6792.4692-1.6871-.4821-.8442-.4021-1.9544.1286-.5276-.1952z"/><path fill="#79726A" d="m211.2258 40.8731.4113.9748 1.1343-.342 1.2888.5812 2.4273.7601 2.5394.6906.1963 1.0541 1.6316-.1726 1.5825.7348-1.9674.6977-3.4495-.5331-1.2449-.9978-2.1981 1.1796-3.1543 1.1468-.7611-1.2965-3.0041.2128 1.9268-1.0963.2835-1.7447.7559-2.0302z"/><path fill="#79726A" d="m367.8391 39.1028-.512 1.4345 2.5047 1.512-2.8819 1.6904-6.3942 1.5191-1.9104.4043-2.9182-.3265-6.185-.7016 2.1823-.9797-4.8247-1.0839 3.9249-.4297-.0954-.6509-4.6522-.5156 1.4977-1.4437 3.3596-.328 3.4549 1.5037 3.3681-1.207 2.7891.6268 3.6149-1.1814z"/><path fill="#79726A" d="m231.8306 37.5667-2.4848.1112-.5532-1.0848.9416-1.2424 2.0314-.3073 1.7306.6137.0248.9495-.2497.3054z"/><path fill="#79726A" d="m12.0517 38.8181 1.495.5514-.5142-1.6106 6.0171.3305 4.3397 2.0744-2.1978.9662-3.6336.2293-.0548 2.166-.8874.4613-2.0759-.0663-1.6893-.7729-2.9473-.6464-.4957-.9616-2.2511-.3626-2.5209.2876-1.2045-.7757.4815-.8238-2.6549.5265 1 1.0429-1.2576.9407v-8.831l5.4308 1.6927 5.8116 2.2036z"/><path fill="#79726A" d="m187.981 33.2247-1.3784.7772-2.9878-.6716-1.8053.2424-3.0271-.9961 1.9507-.6871 1.5498-.961 2.3515.6285 1.33.399.665.4211z"/><path fill="#79726A" d="m799 29.402-2.4307.1132-.3949-.7042 2.8256-.9241z"/><path fill="#79726A" d="m3.8955 29.2672-2.8955.1348v-1.5151l.284-.0929 1.8787.0046 3.2062.6341-.1898.303z"/><path fill="#79726A" d="m199.2872 32.3602-.0097 2.2667 2.9624-1.737 2.65 1.4266-.6604 1.644 2.1445 1.4957 2.3142-1.6022 1.617-1.9129.1212-2.433 3.1502.1698 3.2769.3262 2.975 1.0999.1334 1.1004-1.6494 1.1819 1.5628 1.1864-.282 1.0782-4.3402 1.5499-3.0833.3422-2.292-.6672-.661 1.1128-2.1363 1.8691-.6469.9695-2.5707 1.4998-3.1732.1472-1.7502.9364-.1464 1.4407-2.5788.2776-2.7123 1.7963-2.404 2.4961-.8596 1.7476-.1224 2.5744 3.2574.3697.9984 2.0757 1.0365 1.6816 3.1018-.4381 4.119.9599 2.216.8424 1.5862 1.0476 2.7775.61 2.3484.9337 3.6604.1281 2.411.214-.3622 1.9197.6899 2.2282 1.6055 2.4809 3.2979 2.1045 1.7066-.7213 1.1994-2.2791-1.1577-3.501-1.5636-1.1666 3.5487-1.039 2.5117-1.554 1.2285-1.5445-.1812-1.4816-1.5053-1.8829-2.6926-1.6682 2.6162-2.3232-.9666-2.0064-.7406-3.462 1.5433-.5116 3.8002.6029 2.2788.2159 1.836-.5826 2.0646.7511 2.7299 1.2851.6723.8606 3.953.1675-.0663 1.8625.7368 2.8019 2.0247.3463 1.6065 1.3056 3.2097-1.2307 2.1205-2.446 1.4667-1.0306 1.7264 1.9794 2.8868 2.8276 2.4514 2.659-.8914 1.3922 2.9484 1.2502 1.9926 1.2666 3.5344.5732 1.4229.7071.8785 1.8758 1.7264.2943.8906.8357.1618 2.4911-1.609.8335-1.591.7781-3.6528.7878-2.7892 1.8207-3.7473.36-4.7412-.4668-3.3268-.0159-2.2958.1538-1.8561 1.5902-2.8258.982-3.1975 2.934-2.5512 2.0463 1.8827-.3643 3.5581-2.9128 4.6496-1.8465 3.3167-.2212 1.9621 1.0871-2.0935 1.4887.7026 2.3891.7235 1.6727 2.8791 1.1071 3.6632-.3211 2.2224-2.4914.1541 1.6074 1.4315.803-2.742 1.4522-4.9097 1.319-2.1987.8973-2.4771 1.5965-1.6832-.1628-.0848-1.8761 3.8486-1.8332-3.5478.0727-2.4636.27.383.7266-2.3671 1.0737-2.2777.7652-2.341.6562-1.2722 1.4497-.2768.3653-.0224 1.1753.7315 1.1748.9199.0554-.2327-.809.6652.4924-.1776.6336-1.4963.3591-1.0646-.043-1.6396.3865-.9643.111-1.2888.1094-1.8478.642 3.2558-.4177.6566.4199-3.1031.6649-1.4122.0045.0659-.2717-.6749.6144.6524.1016-.4788 1.5924-1.6128 1.7063-.165-.5695-.4868-.1153-.7272-.5542.4613 1.1935.5242.3962.0594.8362-.7108.8614-1.2476 1.7702-.2017-.0882.6854-1.5082-1.1323-.8472-.2597-1.8416-.4273.9584.4731 1.4063-1.3981-.3316 1.4595.6978.095 2.1094.636.1534.2302.7669.3114 2.218-1.4089 1.6453-2.2931.657-1.457 1.3003-1.1071.1422-1.1223.8141-.3167.7438-2.4334 1.4391-1.2496 1.0551-1.0448 1.3141-.3416 1.5747.3917 1.5396.7398 1.8962.9851 1.5694.0123.9576 1.0496 2.5713-.0698 1.495-.0964.8618-.553 1.3535-.6629.2798-1.0908-.2687-.35-.9726-.8424-.51-1.1747-1.9063-1.031-1.6957-.3329-.8671.4549-1.4715-.6206-1.2191-1.7281-1.8545-.8653-.34-2.2363 1.0059-.3967-.1104-1.0756-1.0343-1.3899-.5484-2.5053.2785-1.9674-.2448-1.6906.1525-.9408.3098.4238.6252-.0361.899.4708.4381-.4225.2912-.8226-.3268-.8319.4204-1.6084-.0691-1.6548-1.1714-1.9337.2767-1.6122-.5134-1.3788.1556-1.8656.5178-2.0178 1.6434-2.2027.9559-1.2103 1.0583-.5098.9974-.0222 1.5295.1108 1.0641.4208.7549.0035.0035-.0071.0045-.8562 1.9369-.3875 1.5956-.1621 2.9695-.2136 1.0826.3843 1.2094.6872 1.0809.4427 1.7192 1.4713 1.6504.5174 1.2645.8672 1.0914 2.3539.5884.9161.9274 1.9443-.6197 1.6902-.224 1.6598-.3985 1.3952-.3799 1.41-.9045.5282-1.2931.1818-1.8621.3832-.6481 1.5013-.5804 2.344-.5142 1.9629.0771 1.3444-.1875.5317.47-.0751 1.0675-1.1913 1.3176-.5268 1.35.4085.3857-.332.9584-.5558 1.7295-.5616-.5693-.4642.0368.0081.3255.4201.0101-.0368.6029-.3588.9586.1937.3431-.2322.7931.1399.212-.2569 1.1198-.4354.5883-.4003.0705-.4393.7678.7226.4008.1913-.3304.6502.2834.2303.0864.4861-.3896.6344-.032.2055.1809.3441-.11 1.0296.2 1.0247-.0581.7131-.2451.2601-.2483.7062.1149.5305.1507.5799-.0523.4404-.192 1.0124.3072.3519.0493.6766.414.6406.497.8059.3396.5834.6095-.1906.2129-.113.4947.2262.8113-.5106.755-.2378.892-.0718.9767.119.5714.0558.9979-.3387.2177-.2073.9483.1524.5853-.4534.567.1031.5989.3399.364.5614 1.2045.857.892 1.0407.9461.7961.7953-.0455.4694.8844.0999.2095-.1805.6093.5448 1.0904-.16.943-.5599 1.3461-.4468.7566-.6629 1.2239.1303-.0825.2177 1.2357.0759.9865.383.7235.6668.834.6127 1.1453.0705 1.6631-1.5478.9126-.2358.022-.7333.4085-1.873 1.2712-1.0286 1.3971-.0421.1761-.4619 1.7346.1848 1.7443-1.1194.8635-.4956 1.0732-1.0676.7854.1357.5816.583-.4305.7465-.0629.5236-1.3013.259.7232 1.0059-.0271 1.1593-.9777 1.2874.8389 1.7586.9555-.144.4978-1.6022-.6874-.7798-.1119-1.6785 2.7606-.9008-.3073-1.045.7773-.6991.7955 1.5574 1.5546.036 1.4402 1.2364.0868.7337 1.9903.0195 2.3684-.2278 1.2692.9925 1.6954.2741 1.2434-.6926.0253-.558 2.7459-.1336 2.6563-.031-1.8823.6549.7572 1.0462 1.7729.1667 1.6806 1.0902.3532 1.7755 1.1551-.0501.8685.5226 1.4555.8153 1.3716 1.4444.0621 1.1412.8352.0528 1.188 1.0813.8751.7718 2.6558.4438.2383-.3995 1.7923-.1601 2.3834.5959.7528.2439 1.6322.5244 2.3469 1.8709.3669.9079.7552-.1046.5484 1.2258 1.2434 3.877 1.1854.3657.0597 1.5299-1.6674 1.8249.6896.6682 3.9184.3481.08 2.2219 1.6836-1.4545 2.7892.7966 3.6816 1.3538 1.082 1.2989-.3636 1.2272 2.5778-.6832 4.3139 1.1724 3.3117-.0865 3.2769 1.8346 2.8309 2.4834 1.7075.6394 1.8955.0888.8032.6992.7524 2.8226.368 1.341-.8827 3.6646-1.1276 1.4472-3.1247 3.0843-1.4122 2.506-1.641 1.9216-.5541.0434-.6191 1.6308.157 4.1532-.6177 3.4167-.2356 1.4615-.7009.8745-.393 2.9635-2.2476 2.8935-.3768 2.2895-1.7941.9604-.5191 1.3289-2.4083-.0053-3.4871.8518-1.5611.9861-2.4827.6476-2.6087 1.7649-1.8764 2.1986-.3226 1.6552.3687 1.224-.4141 2.2393-.503 1.0816-1.5492 1.2201-2.4596 3.9011-1.9491 1.7586-1.5072 1.0365-1.0107 2.1087-1.4664 1.2673-.9593 1.3931-2.5035 1.232-1.6364-.4431-1.1997.2374-2.0493-.9516-1.5031.071-1.3504-1.2259-.1517 1.1572 2.8144 1.8986-.3026 1.5281 1.385.9657-.1124 1.0827-2.13 2.8426-3.2867 1.1889-4.4458.4615-2.4349-.2233.4657 1.322-.4538 1.6593.409 1.1178-1.3295.7798-2.2715.3062-2.1315-.8073-.8554.58.3091 2.2027 1.4966.6673 1.2136-.699.6603 1.1514-2.041.688-1.7801 1.3784-.3258 2.2299-.524 1.1871-2.0941.0062-1.7377 1.1355-.6355 1.6621 2.1802 1.623 2.1191.4482-.7628 1.9889-2.6181 1.2502-1.4406 2.5988-2.0229.8745-.9084 1.038.716 2.3023 1.4751 1.2831-.9342-.1121-1.9725-.0167-1.067.5454-2.0004.8008-.3573 2.0704-.9388.0514-2.5006-.7204-2.5376-1.5435-2.7577-1.2688-.6944-1.404.6282-1.2987-1.1151-1.4743-.2844-3.7785.9428-2.132 2.341-1.7128-3.3645-.6465 2.111-1.9586.7545-3.6818 2.4636.78 1.1584-4.5921-1.4879-.5892-.6924 2.7671-1.3979-.3122.6961-3.1702.7554-4.1066 1.0186-1.5153-.6382-2.1628-.1829-2.4973.9339-.0721 1.3602-3.5799 1.5326-3.5459.9381-3.3034-.5103-3.3212.6621-1.8285-.2656-2.736 1.2961-2.7066.3993-4.2882.7115-4.6039.6934-4.9556-.1624-3.6285-.4612-3.1221-2.2226-1.2726-.1924-.9098-4.3946-2.2255-3.9751-2.4244-1.71-1.3663-.9181-1.8312.3639-.6389-1.8774-2.9088-2.1855-4.0899-2.0943-4.4135-.9066-1.0104-.6973-1.6326-1.7223-1.4466-1.5795-.8975.7176-.9893-1.0742-2.1143.69-1.5523 1.7669-1.4001 1.18-1.6565-.4795-.9682-.8472 1.0296-1.3278-.9715.4498-.6248-.3742-2.012.7765-.334.4079-1.381.8389-1.4279-.1546-.9044 1.2143-.4753 1.5239-.8823-.3006-.6879.827-.1667-.0982-1.1101.5198-.8034 1.0997-.1485.9335-1.3929.8483-1.1629-.817-.5276.4182-1.2865-.5001-2.0278.4753-.5817-.35-1.8749-.8975-1.181-.7389-.6394-.4747-1.1965.5477-.5922-.5619-.1517-.4136-.7323-1.1044-.6163-.9698.141-.4493.7715-.8956.5567-.4835.0771-.2174.4616 1.0576 1.2032-.6052.2833-.3202.3285-1.0315.113-.3837-1.3241-.2886.3768-.731-.1305-.4474-.8914-.9091-.1476-.5751-.2594-.9512.0035-.0685.481-.2545-.3351-1.203-.4917-.4502-.4655.2553-.3848-.0805-.4899-.6146-.5306-.8722-.4358-.763-.2837-.1458-.6486-.5812-.396.1423.6442-.4423.5297-.5067-.6148-.712-.219-.3031-.4469.0127-.6747.2935-.6983-.626-.3126.508-.4282-.7667-.6983-1.0362-.8942-.4878-.7475-.9344-.6965-1.1107-1.001.2461-.3431.366.3338.168-.1564-.383-.6934-.6732-.193-.2461.5219-1.2838-.0328-.7979-.2124-.9166-.441-1.2317-.1375-.6278-.4761-1.1371-.3867-1.3829-.0399-1.0136-.4397-1.1926-.9146-2.5085-2.3864-1.1434-.7201-1.8097-.5781-1.2382.1614-1.7805.834-1.1171.2185-1.5655-.5844-1.6612-.4215-2.0719-1.0171-1.6618-.3107-2.5096-1.0303-1.8543-1.0596-.5596-.5918-1.2404-.1326-2.2674-.7014-.9232-1.0117-2.3819-1.2581-1.1105-1.3979-.5284-1.0799.7396-.2163-.2281-.6322.5097-.575.0108-.7666-.7476-.9957-.2003-.8818-.7432-1.1185-1.9533-2.2038-2.2289-1.7312-1.0784-1.3819-1.9025-.9053-.4077-.5413.338-1.3699-1.13-.5169-1.3086-1.0774-.5525-1.5468-1.1923-.1803-1.2872-1.1678-1.0388-1.0783-.0966-.6924-1.192-1.6718-.7854-1.6976.0336-.8515-1.6031-.8792-.7399.0966-1.2652-.6108-.3553.9004.367 1.0635.2156 1.6647.7601.9138 1.6452 1.5268.3653.5218.3371.1583.2924.7616.394-.031.4448 1.4298.6733.5639.4721.7847 1.3929 1.1282.7357 2.0619.658.971.6157 1.0387.1219 1.169 1.0689.0732.8889 1.0073.804.99-.0539.3966-.9327.8145-.3926-.0107-.5845-1.3476-1.4509-1.2636-1.5984-1.0715-1.1336-.5631.0732-1.622-.3364-1.2011-1.0563-.6871-1.5236-.9892-.2928.2855-.559-.5776-1.3673-.5364-1.3065-1.2871.1616-.1674.913.1258.8225-.8282.0826-.9997-1.7064-1.5813-1.3009-.6135-.8173-1.3846-.8222-1.4532-1.0268-1.7716-.9003-1.9941-.3729-1.1328-1.4364-1.2745-1.0345-.2652-.2423-.6361-1.2438-.1114-.7931-.5993-2.0593-.2185-.5652-.3579-.2694-1.2156-2.1508-2.2272-1.8462-3.0816.0786-.5135-.9779-.7319-1.7156-1.8576-.3059-1.8074-1.1812-1.2108.486-1.8371-.0774-1.9011-.7074-1.6988.8661-2.089.539-4.0233-.4005-2.9729-.7007-1.8966-.6461-1.029.2684-.4327 3.2055.7528 1.1809 2.0924.548-.5851-.3546-1.8177-.7537-1.8177-.2974-.0056-4.2915-2.1768-1.5835-.9576-4.0145-.9177-1.2348-1.9622.3156-1.3607-2.836-.9438-.389-1.7871-2.6815-1.6093-.047-1.1415-1.2186-.8339-1.9537-.7072-.6269-1.9334-2.8577-1.7928-1.1943-2.093-2.1285-.1431-3.524-.0545-2.5979-.6381-4.5837-2.3004-2.1222-.4202-3.8774-.7914-3.0688.1888-4.3594-1.0183-2.6354-.9443-2.4604.469.4573 1.5402-1.2253.1418-2.5647.4625-1.9516.7479-2.4563.4708-.3171-1.3061.9967-2.1741 2.3559-.6823-.6078-.5559-2.8256 1.2351-1.5128 1.4754-3.1938 1.577 1.6218 1.0764-2.0948 1.592-2.3829.9278-2.2185.6761-.5493.9816-3.4604 1.1447-.7007 1.041-2.5935.9473-1.5215-.1706-2.0689.6184-2.2494.7546-1.8434.7412-3.8042.6331-.3472-.3725 2.4248-1.0355 2.1686-.6841 2.3625-1.2125 2.75-.2506 1.0931-.9087 3.0725-1.327.4949-.4438 1.6367-.7829.3823-1.6806 1.1274-1.3092-2.5558.6716-.7149-.3812-1.2001.8059-1.4475-1.1243-.5976.7954-.8292-1.1048-2.216.8871-1.3607-.0017-.191-1.3194.401-.8131-1.4273-.7891-2.8824.4247-1.8705-1.0405-1.5167-.532-.0097-1.2555-1.7083-.9448.8579-1.2745 1.807-1.237.7907-1.1379 1.7937-.1618 1.5209.3546 1.7882-1.0693 1.6094.1907 1.6889-.6877-.4118-1.0126-1.2407-.399 1.641-.8552-1.3615.0253-2.3521.4828-.6756.4895-1.748-.4886-3.1353.2483-3.2463-.5312-.9303-.8916-2.8052-1.2883 3.115-.927 4.9444-1.0826h1.8224l-.3014 1.1071 4.6787-.0861-1.7997-1.3729-2.7266-.8447-1.5764-1.1078-2.1264-.9457-3.0462-.7004 1.2407-1.162 3.9322-.0719 2.7978-1.0098.5278-1.0795 2.2646-1.0534 2.1592-.2536 4.2019-.9842 2.0383.1485 3.4111-1.1819 3.3539.4655 1.604 1.0007.9845-.4292 3.7462.133-.133.5098 3.3916.3768 2.261-.2216 4.6699.7004 4.2632.2083 1.7069.2882 2.9494-.36 3.3625.6663 2.4087.31 4.135.5341 3.4892 1.0663 2.3115.204 1.9461-.9245 2.6845-.6924 3.2927.2709 3.3204-.9736 3.6278-.5524 1.5227.9186 1.6541-.5177.4951-1.0441 1.5319.2362 3.7479 1.9875 2.9515-1.5025.2997 1.682 2.7232-.3635.8372-.6469 2.6846.1278 3.3904.9309 5.1874.8127 3.0507.3764 2.1712-.1427 2.9902 1.1238-3.1186 1.0999 4.0069.4753 5.9834-.2611 1.8881-.3879 2.3628 1.329 2.4112-1.1216-2.2622-.9403 1.4315-.7586 2.6981-.1023 1.7733-.2217 1.7894.5294 2.2275 1.204 2.4756-.1769 3.9164.9997 3.4409-.352 3.2337.0533-.2558-1.3793 1.9708-.3874 3.435.7518-.0131 2.097 1.4107-1.7671 1.783.0594 1.0024-2.2282-2.3747-1.3669-2.5873-.8959.1777-2.4494 2.6208-1.6083 2.9236.3555 2.2428.9783 3.0114 2.4992-1.9669 1.0888z"/><path fill="#79726A" d="m146.9294 24.3275-1.1065 1.0389 4.9328-.6708 3.0826 1.1194 2.5049-1.1321 2.0256.7265 1.8137 2.1778 1.1136-.919-1.5748-2.27 1.9506-.3246 2.203.3546 2.483.8943 1.3912 2.1594.6873 1.5637 3.7227 1.0977 4.0002 1.0495-.2406.975-3.6394.1783 1.4139.8521-.7469.8131-4.0116-.3484-3.8127-.5985-2.577.1347-4.1617.7519-6.5764.3892-2.9845.1527-1.2009-1.046-3.0258-.6042-1.9683.2478-2.7311-1.7551 1.4747-.2362 3.4217-.3785 3.1248.0996 2.8935-.3857-4.2868-.5179-4.7367.1763-3.1431-.0445-1.1695-.8172 5.141-.8866-3.4193.031-3.871-.5839 1.8605-1.6608 1.5433-.8825 5.9348-1.3491z"/><path fill="#79726A" d="m168.3583 23.6657-1.9506 1.463-3.458-1.5517.7536-.3103 2.9704-.0887z"/><path fill="#79726A" d="m230.7797 24.3691.1964.6125-2.3564-.0647-2.3879-.0468-2.4263.2981-.6419-.1346-2.439-1.1755.0936-.798 1.0659-.1474 5.0731.2389z"/><path fill="#79726A" d="m208.1205 24.2477 1.7463 1.3817 2.0488-1.787 5.6182-.9103 3.8027 2.2929-.33 1.4511 4.3853-.6434 2.097-.881 4.9182 1.1215 3.0529 1.0563.287.9672 4.1162-.5012 2.3102 1.4118 5.3509.8756 1.9309.8935 2.0969 2.0745-4.07 1.0327 5.2208 1.4476 3.5191.4868 3.1862 2.0373 3.4867.147-.6898 1.5558-3.8909 2.5749-2.7274-.9473-3.4854-2.1325-2.8679.2778-.2799 1.27 2.3311 1.2886 3.0093 1.0198.9131.5889 1.4425 2.1941-.7634 1.5932-2.7958-.6005-5.5597-1.7746 3.1333 1.9101 2.3084 1.3386.3607.774-6.0112-.885-4.7571-1.2869-2.6865-1.0798.7739-.6254-3.3073-1.1393-3.2278-1.0754.0353.6428-6.4094.3537-1.8753-.7611 1.4601-1.6321 4.1651-.0394 4.563-.2833-.7406-.7914.7736-1.1057 2.8678-2.159-.6094-.9805-.8546-.7593-3.3953-1.0755-4.4905-.7539 1.4197-.5609-2.3468-1.3782-1.9535-.1263-1.7481-.7545-1.1864.6541-4.0188.2851-8.067-.4953-4.6889-.6503-3.5948-.3342-1.8436-.7787 2.318-1.0111-3.1487-.0097-.7027-2.2444 1.7037-1.9826 2.2795-.9053 5.7236-.5895z"/><path fill="#79726A" d="m177.5433 22.7261 2.6435.4666 3.9542-.2807.5763.6429-2.0694 1.0628 3.3551.9543-.399 1.995-3.6346.8582-2.1351-.1852-1.5338-.8465-5.5088-1.7106.0443-.7094 4.5256.2752-2.4419-1.45z"/><path fill="#79726A" d="m718.3219 24.1258-3.361.0155-4.543-.2471-.388-.1173 2.1027-.8761 2.7717-.2051 3.1493.8475z"/><path fill="#79726A" d="m193.4149 25.1021-2.378 1.6567-2.5287-.0826-1.383-1.9471.0343-1.102 1.1582-.9421 2.1992-.604 4.6187.0773 4.2344.5393-3.3121 1.9739z"/><path fill="#79726A" d="m132.9803 28.1434-5.8347 1.1047-1.1699-.9717-5.1182-1.1719.7453-.7223 1.741-1.8355 1.9225-1.4573-2.1673-1.3583 7.492-.3462 3.1657.4601 5.6616.1232 2.1529.6422 2.3798.933-2.7866.5592-5.4354 1.5581-2.7487 1.5517z"/><path fill="#79726A" d="m734.1219 19.977-2.5619.8759-3.5433-.1982-4.1192-.8748.5305-.7178 4.1313.3346z"/><path fill="#79726A" d="m192.4917 20.2077-1.2062.8593-3.2181-.1652-2.6871-.578 1.18-.9979 3.187-.5972 1.9354.7775z"/><path fill="#79726A" d="m721.6079 18.9162-1.7429 1.6462-8.1711-.0614-3.676.5236-4.3913-1.4413 1.1911-1.5239 2.9245-.4158 5.8532.0972z"/><path fill="#79726A" d="m181.6583 16.3507 1.6945 1.0273.0691 1.1374-1.0099 1.648-3.6547.2273-2.3827-.3545.0459-1.2932-3.6335.1706-.1406-1.713 2.3847.0692 3.3388-.7558 3.1178.128z"/><path fill="#79726A" d="m160.1314 17.4996.8689.7895 1.9739-.3708 2.3229.0962.3902 1.086-1.3488 1.0512-7.5068.3442-5.5928.9599-3.371.0503-.2827-.7227 4.6043-.9802-10.0149.2639-3.0993-.3963 3.0244-2.1653 2.0862-.6203 6.2384.7482 3.9375 1.3126 3.8728.1684-3.1702-2.1205 2.0308-.8076 2.2888.2568z"/><path fill="#79726A" d="m527.5375 29.6497-1.3095.1944-7.2432-.288-.5882-.9842-4.0124-.5942-.3239-1.1973 2.2665-.4756-.0756-1.2087 4.3967-1.8905-2.0379-.271 5.3071-1.9455-.5996-1.0062 4.958-1.1703 7.3181-1.4242 7.3778-.4149 3.7963-.8218 4.3138-.288 1.5409.8753-1.4888.6898-7.8542 1.0992-6.7693 1.0571-6.8859 2.1099-3.3035 2.1635-3.4745 2.1319.4511 1.8413z"/><path fill="#79726A" d="m190.1169 15.5131 2.4609.7128 4.3644-.0049 1.9134.7291-.505.8325 2.5434.5015 1.408.5267 2.9898.0975 3.2343.1857 3.5236-.4805 4.5135-.1887 3.6019.1559 2.3741.836.4956.9171-1.3829.5892-3.3052.4763-2.8374-.2695-6.3587.3413-4.5505.0393-3.5786-.2732-5.8912-.7142-.7667-1.2171-.2696-1.0991-2.2253-.9678-4.5855-.2707-2.5689-.6865.834-.9095z"/><path fill="#79726A" d="m142.4265 14.2997-.3042 1.7031-1.7074.769-2.0711.1083-4.1206.9486-3.5482.3396-3.0034-.4799 3.7625-1.658 4.5522-1.4358 3.3999.0308z"/><path fill="#79726A" d="m637.1174 15.787.5982 1.0955 2.0256-.5392 6.4801.0294 4.9968 1.0813 1.7795.8303-.5514 1.1523-2.4521.656-5.8254 1.2308-1.6652.6574 2.7487.3103 3.279.5595 1.9953-.4194 1.1311 1.4227.9734-.5759 3.5444-.3503 7.1121.3663.5403 1.0364 9.267.3299.1268-1.6931 4.7043.3879 3.5387-.0119 3.5795 1.1677 1.0205 1.4187-1.3114.9279 2.7842 1.7445 3.4859.8999 2.1386-2.3257 3.5561.9972 3.7779-.5959 4.2906.6818 1.6325-.6216 3.6259.3108-1.6004-2.058 2.9264-.9602 20.021 1.4396 1.8869 1.3157 5.8022 1.694 8.951-.4194 4.4134.3653 1.8451.9164-.2696 1.6208 2.7309.6313 2.9669-.4539 3.931-.0581 4.1851.4349 4.201-.2452 3.8614 1.9702 2.7469-.7088-1.7924-1.417.9869-.9846 7.0721.6197 4.6111-.1326 6.3751 1.0579 3.1031.9673v8.8315l-.0157.0117-2.8498.974-2.8727-.1626 1.9989 1.18 1.3194 1.8262 1.0245.5971.2572.9169-.5725.5874-4.1317-.4829-6.1957 1.6684-1.971.2584-3.3915 1.5575-3.2178 1.3605-.8148 1.0073-3.1707-1.5331-5.7753 1.7397-1.0086-.8233-2.1351.9496-2.965-.3037-.7142 1.4577-2.6596 2.1453.0794.8959 2.5243.4966-.2969 3.227-2.0576.082-.9492 1.8545.9221.9541-3.876 1.1323-.7696 2.5309-3.3047.5409-.664 2.2521-3.1951 2.065-.8198-1.5272-.9492-3.2336-1.2373-4.926 1.0658-3.074 1.8704-1.3229.1157-1.0361 3.4443-.4957 3.9598-2.7911 3.8157-2.2792 3.9847-1.7686 1.7823-3.125-2.6938.1871-1.3313 1.8261-5.6223 2.4343-1.8159-2.726-5.7225.7527-5.5475 3.7156 1.8305 1.3593-4.9476.579-3.4274.2283.1605-1.6031-3.4456-.336-2.7459 1.0888-6.7777-.3812-7.2916.6569-7.1806 4.327-8.4948 5.2278 3.4922.2793 1.0901 1.3885 2.1528.4925 1.4187-1.1074 2.4313.1441 3.2004 2.4383.0753 1.886-1.733 2.2149-.1869 2.6471-.9999 3.544-3.3413 3.2075-.7425 1.5334-3.009 2.5812-2.9858 2.559-1.4316 1.3095-2.9538 1.3007-1.3979.0288-1.3926-1.0772-2.9751 1.6222-.3454.7372-.8424-.133-.9625.751-.6614.7542.0839 1.592-1.1465.4897-.3937.3912-.8357.6552-1.4762.3644-.9621.5954-.0697.9598-.2584.2447.8818.3604 1.2554.9723 1.9135 2.6152.5489 1.4368.0173 2.5541-.8353 1.2182-2.0074.4257-1.772.9194-1.9967.1898-.2479-1.2072.411-1.6625-.9794-2.3072 1.6466-.3733-1.5198-1.8969-1.0764-.4221-.2673.4168-.6499.1839-.078-.4171-.5742-.2031-.5958-.3533.6069-.9759.5228-.2601-.1974-.4052.5627-1.1952-.1455-.3628-1.2937-.241-1.0458-.5947-3.0989.6443-1.6318 1.0361-2.387.605 1.178-1.0271-.4638-.8632 1.7552-1.49-1.1709-1.1615-1.9325.7824-2.5025 1.5415-1.366 1.4315-2.174.1064-1.1305 1.0344 1.1681 1.4988 1.8146.364.074.9949 1.7538.6472 2.484-1.5827 1.968.8632 1.4333.0589.3595 1.1611-3.1383.6193-1.0357 1.1966-2.1555 1.1118-1.138 1.5517 2.3855 1.218.8712 2.1806 1.3492 2.0313 1.505 1.7025-.0359 1.647-1.3912.6051.5302 1.1824 1.3048.688-.3405 1.8053-.563 1.7569-1.2388.1991-1.6185 2.3994-1.7955 2.9091-2.0584 2.6454-3.0484 2.0459-3.0834 1.8656-2.4977.2545-1.3552.9846-.7662-.719-1.2542 1.1011-3.0975 1.1106-2.3456.3396-.7569 2.3412-1.2284.13-.5813-1.6089.525-.8574-2.9739-.7097-1.0476.3608-2.9597 1.8965-1.8473 2.0944-.4868 1.5379 1.6952 2.3368 2.0726 2.8963 2.0118 1.3694 1.3469 1.7801 1.0158 4.1021-.2998 3.8996-1.8487 1.4598-2.5385 1.4271-1.8084 1.8479-2.7636 2.0642-.8048-1.4218.6229-1.5017-1.6444-1.2594-1.8557-.3237-.9013-1.1548-1.1208-2.2899-1.9906-1.0178-1.8956.0417.325-1.7416-1.952.0129-.1756 2.4379-1.1966 3.2377-.7208 1.9583.1524 1.6043 1.444.0697.8996 2.0229.3981 1.9187 1.2368 1.2698 1.343.2574 1.1486 1.1506.5098.207 1.3088 1.3385.9301 1.4837.1273 1.4927-.2364 1.0087.2159.7621.1618 1.3118.7807.6108.8717 1.9601-.0422.7496-1.572.148-2.0969-1.642-2.6224-1.7597-.2594-1.1291-1.2817-1.4825-.3059-1.8358-.7997-1.2086.2429-1.6142-.4886-.9393-.876-.8509-.379-1.0976-1.178-1.2515-1.0737-1.0512-.3639 1.303-.4204-1.2316.2421-1.3827.6522-2.1263-.2133-1.6452.681-1.6979-.7453-1.3119.1805-2.4148-.9-1.1483-.7226-2.6528-.4003-2.8006-.9586-1.8354-1.4602 1.1114-2.5195 1.5801-1.2432-.1974-1.3734-.5199.7639-2.7469-.4625-2.0753-1.7374-2.5558.271-.7994-1.2968-.2841-1.5734-1.8079-.6331-1.1558-.1276-1.1292-.4221-1.0667-.9261-1.2904-2.0416-.0888.2017.9138-.6965 1.2334-.943-.4492-.3223.4034-.6277-.242-.8574-.1982-.3174.8092-1.5083-.028-2.7326.4606.1271 1.6674-1.1831 1.3114-3.1899 1.4918-2.4809 2.6081-1.6665 1.3982-2.2087 1.4511-.0035 1.0197-1.1052.5462-1.9963.794-1.0357.117-.6646 1.691.4615 2.8829.1176 1.839-.9395 2.1058-.0097 3.7661-1.1473.1073-1.0086 1.6909.6743.7302-2.0208.6286-.7466 1.5077-.8897.6371-2.0988-2.0699-1.0262-3.1042-.8503-2.2357-.7767-1.0486-1.1775-2.1292-.5503-2.7726-.383-1.3846-2.0163-3.0444-.9186-4.2959-.6627-2.8365.008-2.6847-.4297-2.0761-3.2261 1.3268-1.5622-.2656-2.8959-2.6865 1.0657-.8011-.6544-.8704-2.6001-1.8814-1.6247-.5604-.6611-1.5933-1.7126-1.6882-4.084.4171-3.6016.0413-3.1215.3107-4.1705-.669-2.4166-.5098-2.5018-.2878-.9451-2.718-1.0613-.3928-1.7033.3959-2.2358 1.0729-2.7087-.7355-2.2375-1.7032-2.1343-.6314-1.4803-2.1032-1.6358-2.9556-1.193.3594-1.409-.7345-.8272.865-1.3159-.1087.4629.9785-.1982.5058.7142 1.6717.8681 1.9117 1.0906.5063.3795.7785 1.5109.9319.1342.9146-.2212.7382.2808.7448.6375.6211.2952.7271.3312.543-.1468-1.6128.5976-1.1629.6052-.2385.6708.6952.0389 1.2976-.4809 1.3038.4207.8468.3945-.1078.082.6079 1.7348-.3494 1.8332.0581 1.3389.0652 1.5184-1.4985 1.6536-1.4213 1.4005-1.3663.6455-.7546.274.1924-.2089.9154-.289.4021.3011 1.7513.9938 1.5139 1.2374.8046 1.6261.2899 1.3128.404 1.0001 1.2706.5976.7364.7936.2806-.004.4948-.8068 1.3211-.3543.622-.9341.7089-.8268 1.5184-1.0059-.1162-.4607.5285-.3559 1.1239.2722 1.4816-.2088.2726-1.0201-.0076-1.3846.8287-.2158 1.0799-.5072.4677-1.3788-.0181-.8677.5585.0107.8956-1.0724.6154-1.2231-.2093-1.4826.7479-1.0236.1254-1.6035.5954-.4292.9843-.0519.7559-2.2074.9358-3.5417 1.0343-1.9848 1.5636-.9759.1223-.6653-.1312-1.2955.92-1.4129.4269-1.8607.1148-.5598.126-.4846.5855-.5813.1619-.3427.5635-1.0972-.0488-.7084.3011-1.534-.1131-.5767-1.2945.0634-1.2121-.3623-.6539-.434-1.6395-.637-.9111.4438-.1081-.2275-1.0125.2687-.4274-.0981-.967-.2876-.9461-.6686-.6677-.1712-.8838-1.1446-.7946-1.1815-1.8588-.6256-1.8062-1.533-1.5255-.9886-.3641-1.4678-2.1123-.2568-1.5406.0944-1.3141-1.2709-2.4578-1.0396-.8649-1.1975-.4585-.7289-1.2702.121-.5008-.6157-1.1496-.6473-.4948-.8659-1.6488-1.3494-1.7876-1.1305-1.5227-1.1039.0111.3449-1.217.0983-.7759.2746-.8848-.074-.3205-.6229.8906-.4767 1.6744-.6034 1.1545-.5164.3871-.7391-.7156-1.0001-.9892-1.5819-3.1772-.2278.2008.9186 2.3389 1.3609 2.2287 1.6754 3.4528.8184 1.2049.712 1.252 1.9893 2.4543-.4407.3861.0719 1.4409 2.5814 1.9896.3892.4539.7148 2.175-.486.4021.3219 2.2819.8139 2.6468.8441.5456 1.2135.8194 1.287 2.566.6105 2.0348 1.2151 1.0795 3.0258 2.094 1.2316 1.2635 1.2014 1.2789.6934.7617 1.0897.6668.5244.6863-.0696.9203-1.2648.5302.9519.6065.7213.4087.4344.9164 1.0002.928 1.1004.0074 2.0893-.567 2.4131-.2625 1.9511-.6889 1.0996-.1458.7917-.4043 1.2622-.0781.7084-.0438 1.0214-.329 1.1754-.2234 1.0489-.7586.8406-.0062.05.6127-.2048 1.2897.0084 1.165-.4677.8006-.6247 2.3963-1.0675 2.476-1.3704 2.8307-1.9023 3.2487-1.8921 2.4819-2.6069 3.024-2.2184 1.7941-3.3157 2.2011-2.0663 1.686-2.426 2.6855-.5111 1.1687-.501.5249-1.5521.8851-.5476.925-.8307.1625-.3144 1.5619-.7119.8941-.4327 1.475-.8925.7319-1.0237 2.7314.1313 1.2562 1.4196.8078.0664.5763-.6104 1.3387.1272.6736-.1453 1.0588.7744 1.3895.9173 2.1858.8135.4848.3587.9937-.0913 2.2086.2739 1.9448.0859 3.4643.3898 1.0857-.661 1.584-.8601 1.5393-1.4111 1.3747-2.0269.8426-2.4987 1.0757-2.5043 2.3792-.8531.4049-1.5472 1.575-.9132.5125-.1875 1.5805 1.0511 1.6786.4375 1.3002.0276.6632.3918-.1108-.0638 2.174-.3591 1.0296.5222.3795-.3298.9225-.9265.7883-1.8284.7493-2.6657 1.1997-.9722.8197.1897.9337.567.1493-.1907 1.1667-.5536 1.6135-.2616 1.8419-.5737 1.0005-1.5126 1.1194-.4332.3206-.9399 1.1259-.6179 1.1389-1.2573 1.5882-2.5054 2.2872-1.5644 1.3298-1.6736 1.0087-2.3169.86-1.13.1154-.286.6153-1.3472-.3274-1.0973.4218-2.4024-.4271-1.3429.2702-.9177-.116-2.2863.875-1.8926.3511-1.3694.8377-1.0081.0532-.9382-.7903-.7492-.0406-.9545-.9896-.1046.3074-.2948-.5959.0124-1.2996-.72-1.4856.7152-.4037-.0582-1.7012-1.4515-2.0746-1.1136-1.8777-.0035-.0058-1.5912-2.8801-1.6473-1.6746-.8677-1.619-.4895-2.1581-.5461-1.6058-.7431-3.4133-.0496-2.6519-.2838-1.2092-.8622-.9137-1.1443-1.8314-1.165-2.6593-.4837-1.3917-1.8039-2.1639-.1343-1.7006-.2089-1.3938.3072-1.9491.7648-2.0294.1153-.9514.7191-1.998.5285-.9085 1.2732-1.4504.7111-.9864.2327-1.6421-.1156-1.2562-.6633-.7924-.5901-1.3449-.5444-1.33.1188-.4606.6814-.8788-.6725-2.1416-.4541-1.4838-1.1101-1.4026.2107-.4306-.3108-.6876-.5923-1.667-1.8208-2.3476-2.2774-2.2374-1.4652-1.8292-1.346-2.2897.0709-.7367.4843-.7086.5382-1.6137.4468-1.6434-.4149-.3343.7616-2.4893.3236-1.7503-.8663-1.4653-1.0116-.3759-.4505-.9935-.5675-.318.0253-.6126-2.3013.798-.841-.1166-.8525.4965-1.7729-.0483-1.1868-1.3868-.7298-1.6043-1.5694-1.4604-1.6656.0275-1.9564-.0013-1.8319.2585-1.7848.473-3.4751 1.2976-1.2324.7604-1.9975.6427-1.9759-.6295-1.0086.0226-1.5465-.4335-1.4212.0257-2.6256.387-1.539.6398-2.195.813-.4282-.0585-.5809.0195-2.2847-1.0565-2.014-1.6873-1.8886-1.2125-1.4927-1.4302-.5972-.1645-1.5958-.8928-1.1546-1.1878-.388-.8094-.2715-1.6386-.9724-1.3118-.8618-.8676-.5677-.2869-.5534-.4406-.2515-.9794-.3243-.4886-.6447-.3631-1.1834-.9265-.9332-.1468-.5087-.6246.0128-.3373-.6758-.4705-.1411-.4743-.3637-1.6993.2833-.9833-.9142-1.7254-1.1059-.7896.975-.4208 1.074-1.5561.5268-1.1384-.1921-1.1944.6188-1.0933.2753-2.0868-.2451-2.1904-.2676-1.1021.2213-1.1054-.5731-1.0536-1.1684-.9577.0954-.9363.1046-1.0272.8514-.6043.7253-1.1549-.143-.7505.7621-1.5641 1.2337-1.409.7465-.3573.5867-1.2928.0525-1.1809.8003-1.3704 1.4765-.8077 1.4051-2.2637 1.1552-.8828 2.0612-.2446 1.7468-1.5153 1.1112-.5905 1.8504-1.851-.5539-2.7574.8421-1.9073.2972-1.1673 1.426-1.4976 2.2238-1.0125 1.6441-.9164 1.4811-2.2951.6968-1.3615 1.6319.0106 1.3362.9412 2.1079-.1534 2.2959.4895.9629.0234 2.1309-1.2112 2.3967-.3852 1.3994-.9147 2.1347-.6747 3.7567-.3949 3.6663-.1801 1.1183.3294 2.0875-.8738 2.3688-.0173.9013.5161 1.5161-.1347 2.414-.8947 1.5517.2659-.0651 1.1216 1.8802-.8157.1577.4257-1.1083 1.0861-.015 1.0254.7674.5507-.2917 1.9187-1.4591 1.1146.4212 1.2076 1.1464.0382.5578 1.0538.8431.3462 2.6034.7629.9309-.1906 1.8518.3698 2.9416.9909 1.0378 1.9701 1.9901.43 3.1242.9284 2.3616 1.1017 1.0808-.575 1.0622-1.0197-.5164-1.698.6956-1.0782 1.5969-1.0387 1.5264-.3024 2.9986.454.7559.9908.8252.0093.7057.3782 2.2024.2599.5405.7319 2.949-.0364 2.1334.5861 2.2007.6548 1.0263.3453 1.7068-.7022.9124-.6353 1.9547-.1827 1.5765.2798.6038 1.0994.5143-.7239 1.7764.5236 1.7281.1254 1.0906-.5585.6451-.7302-.1517-.1256.5865-1.0359.4496-1.6728.317-.5612.0612-.0226.7895-1.8058 1.1025-1.5618.0417-.0771-.207-1.6962.5427-.9119-.8153-1.0055.8396-.8326-1.3517.1889-1.8545-.5098-1.5241 1.2754-3.3641.2496-1.7945-1.1899-2.3896-.0745-.5111.9194-1.5318.2634-2.1439-1.1805-2.4198.0399-1.3131-2.2048-1.6195-1.2294 1.0782-1.7241-1.4049-1.0591 2.4587-2.12 3.4137-.0886.931-1.6847 4.2244.2934 2.6649-1.4378 2.5829-.6268 3.6673-.0469 3.8689 1.5622 3.1801.8574 2.5824-.3418 1.908.1978 2.617-1.1571.3308-.9474-.5537-1.5118-1.2813-.817-1.228-.255-.8122-.6792-2.8262-1.873-2.5292-.8361-1.9144-1.3021 1.6134-.3542 1.8393-1.8541-1.24-.8774 3.2674-.9043-.0586-.485-1.9896.3573-1.7702.1774-1.4746.7172-2.0751.1171-1.9096.8259.1299 1.3787 1.0844.5347 2.261-.133-.433.791-2.4264.3838-3.0094 1.2826-1.2325-.4508.4885-1.0419-2.4219-.6486.3916-.4251 2.1217-.7368-.6415-.5077-3.4461-.5603-.1524-.8264-2.0535.273-.8229 1.2206-1.7166 1.6386.0515.5713-1.0746.4771-.6735-.2074-.6202 2.6741-1.1504.9182-.8096 1.5858.7156 1.2643.2632.8525 1.9353.716-.4035.5432-2.6321.1219-.9456.6854-1.8496 1.1939-.6978-1.0321.0301-.4575-1.3503-.063-1.1567-.2097-2.6844.5764 1.5366 1.2457-1.1261.3613-1.2347.0022-1.1726-1.1415-.4163.4867.4952 1.3238 1.1093 1.04-.8357.486 1.2347 1.0215 1.0972.6428.0333 1.2524-2.0504-.5875.6539 1.1306-1.4076.2327.8406 1.9565-1.4723.0274-1.8177-.9642-.8313-1.7733-.3878-1.4746-.8646-1.0192-1.1358-1.2639-.1499-.6314-.3768-.1552-.0443-.4876-1.228-.7444-.1929-1.056.1875-1.5122.3024-.6885-.3729-.3493-.4642-.1716-.6215-.7235-.9576-.4403-2.0841-.8201-1.2852-.798-2.0274-.6589-1.8642-1.6313.4473-.1654-1.0108-.9324-.0413-.7483-1.4252-.3498-.6793.9571-.6543-.7425.0497-.7693.0789-.0358.4934-.2014-1.7644-.3226-1.8022.7864.1224 1.1004-.2714.6317.7267 1.1283 2.0784 1.1168 1.1149 1.8322 2.4667 1.7867 1.7371-.0138.5399.49-.6221.4416 1.9858.801 1.6274.6708 1.9006 1.1557.2296.4141-.414.7935-1.2302-1.0347-1.9259-.3649-.9331 1.4339 1.6021.8219-.2629 1.1566-.9262.1313-1.1837 1.9014-.9243.1707.0089-.6779.4522-1.1886.4815-.4734-.8655-1.2849-.6765-1.1175-.9204-.2767-.6543-.9567-1.4243-.403-.959-.8906-1.6403-.1437-1.7322-1.0007-2.0278-1.443-1.5069-1.2768-.6916-2.1914-1.103-.2576-1.8034-.7314-1.0202.2992-1.2808 1.0286-.9212.1626-2.0083 1.2525-4.3722-.6003-3.2283.7191-.2536 1.3349.1183 1.2879-2.1004 1.4763-2.8405.4685-.1977.7458-1.3624 1.2285-.8543 1.8042.8646 1.2671-1.2822.9887-.4795 1.4413-1.6733.4415-1.5697 1.7047-2.8136.0337-2.1129-.0422-1.3882.7829-.8466.8375-1.0846-.184-.8209-.7487-.6284-1.2751-2.0692-.3436-.8909.5754-1.1687-.3116-1.1438.2438.3385-1.7347-.2082-1.3629-.9918-.2044-.5299-.84.1765-1.4511.8836-.8047.1573-.8959.4625-1.3331-.049-.9391-.4434-.7962-.0975-.7473.1117-1.5788-.9055-.9615 3.1359-1.6 2.7125.4003 2.9763-.0142 2.3586.3786 1.8404-.1161 3.5826.073 1.1463-1.3295.4221-4.416-2.2875-2.3267-1.6347-1.1212-3.3879-.8529-.2233-1.6159 2.874-.4823 3.7223.5701-.7024-2.5093 2.0926.951 5.1605-1.7287.6659-1.8163 1.9383-.4473 1.7769-.4375 1.142-.6087 1.9414-3.2617 3.0328-.9279 1.842.0625.4328-.469 1.8526-.1206.411.4886 1.5052-1.0928-.5069-.8308-.1014-1.2573-.9-1.2299-.067-2.2663.3694-.5985.6357-.665 1.9529-.1375.7785-.6112 1.783-.6256-.0754 1.1398-.656.7222.266.6206 1.2018.3357-.5417.8361-.6601-.2408-1.5961 1.5961.6025 1.0795.0395.8565 2.2397.5165-.0234.7868 2.2538-.4161 1.2462-.6075 2.5027.8756 1.0466.7058 1.5145-.6509 3.4594-1.0254 2.7916-.75 2.2123.3746.167.5408 2.1378.028.505-.9754 3.059-.719-.4713-1.8635.0767-1.6686 1.0893-1.3921 2.0894-.7571 1.76 1.6562 1.7783-.043.4261-1.702.2574-1.3078-.8153.2793-1.4066-.7873-.1924-1.2738 2.8028-.6175 2.793-.3218 2.405.3661 2.2871-.0656 2.5195-1.2249-2.3221-1.0538-4.0228.1765-3.8983.8125-3.6065.4673-1.283-1.209-2.147-.7278.4934-2.1836-1.0764-1.9997 1.0568-1.291 2.0097-1.3921 5.0713-2.4038 1.4798-.4637-.2304-.9376-3.0826-1.0472-3.8131.6273-2.1497 1.5467.3462 1.3576-3.5262 1.7822-4.2805 1.9067-1.6142 3.1215 1.5779 1.5619 2.1196 1.2298-2.0358 2.5004-2.3054.5187-.8458 3.7214-1.2587 2.0765-2.6892-.2142-1.2546 1.7579-2.5666.102-.7043-2.0953-1.8554-2.5154-1.6865-3.1347-1.4865-1.3607-4.377 2.5638-2.9553.5196-3.0656-1.1287-.7927-2.3834-.7008-5.1157 2.041-1.4261 5.8534-1.8611 4.3761-2.2876 4.0578-3.0892 5.3267-4.2804 3.712-1.6682 6.0918-2.7802 4.8643-.9704 3.6468.1179 3.376-1.8363 4.042.0979 3.9798-.4414 6.9337 1.6216-2.8551.5933 2.4285 1.3924 2.2868-.7709 3.6416 1.3397 6.0705.5277 8.3754 2.507 1.7011 1.0534.1468 1.4754-2.4609 1.1646-3.62.5914-9.8955-1.6851-1.6275.2819 3.614 1.6235.286 3.2931 2.8538.6761 1.7324.5754.2864-1.0747-1.384-.9876 1.4594-.8047 5.3586 1.3797 1.8669-.5401-1.4919-1.6234 5.1657-2.1711 2.0461.1278 2.0699.7749 1.2909-1.5233-1.8482-1.3215 1.0849-1.3256-1.6293-1.3753 6.2005.7111 1.2661 1.2419-2.8063.2734.015 1.2335 1.7447.7588 3.4251-.4805.5417-1.4143 4.6307-1.0555 7.7358-1.9036 1.6717.109-2.1852 1.3455 2.7496.231 1.588-.7573 4.1549-.0611 3.2918-.9191 2.5257 1.3354 2.5189-1.4678-2.3226-1.2844 1.1527-.7315 6.548.6708 3.0679.6928 8.0332 2.5329 1.4821-1.1603-2.2526-1.1717-.0647-.4704-2.6715-.2177.731-1.0507-1.1859-1.7294-.067-.7098 4.0907-2.007 1.4545-2.0149 1.6488-.4358 5.8684.5848.4623 1.2329-2.1013 1.7977 1.3787.7067.7133 1.5498-.5036 3.0374 2.4455 1.3588-.9514 1.4794-4.3416 3.1485 2.5337.3267.8813-.798 2.4392-.5692.5884-1.0968 1.9187-1.0556-1.2919-1.2604 1.0343-1.4635-2.4242-.1821-.5328-1.2329 1.7689-2.226-2.8791-1.807 3.9675-1.4945-.5134-1.576 1.1056-.0506 1.1646 1.2294-.8741 2.1386 2.3718.4052-1.0109-1.5986 3.7099-.8716 4.6005-.1171 4.0964 1.2635-1.9715-1.846-.2208-2.3617 3.8548-.4473 5.3314.098 4.8037-.2904-1.8014-1.1589 2.5651-1.4559 2.5465-.0608 4.3101-1.0998 5.8534-.2953.7395-.6073 5.8205-.2057 1.8136.4978 4.9747-1.1779 4.0725.0368.6108-.9567 2.1183-.9434 5.2331-.9097 3.8016.7181-3.0182.5462zm-128.2563 79.1173 1.1275 1.5725 1.0329.1033.6827.598-1.8256.1783-.3856 1.7215-.3813.7762-.8131.5183.0594 1.0976.7014 1.6346 2.1018.4615 1.5392 1.1123 3.1517.3822 3.462-.5865.2123-.5183-.4128-1.5677.3224-2.3185-1.7286-.7506.5693-1.5175-1.4715-.1295.4903-1.8683 2.0903.5441 1.9476-.7094-1.615-1.3305-.6353-1.2678-1.7844.5656-.2261 1.624-.6921-1.436-.1246-.5408.5449-.9235-.4224-.7723-2.5691-.7555-1.0003-1.9906-1.224-.5608-.074-.7222 2.1563.2107.0851-1.6208 1.8855-.3601 1.9361.3312.399-2.1625-.395-1.3708-2.218.1073-1.8842-.5409-2.5668.9744-2.0677.4647-1.0104 1.3149-2.1493.3653-2.2029 2.288 2.0144 2.1037-.2181 1.4931 2.4206 2.6108z"/><path fill="#79726A" d="m191.988 14.5774-1.0099.0635-4.1542-.1414-.591-.6196 4.4637.0325 1.5559.4115z"/><path fill="#79726A" d="m155.7523 14.185-4.1324.6379-3.2876-.7159 1.7949-.7068 3.2366-.2259 3.1255.3472z"/><path fill="#79726A" d="m454.8051 13.8373-4.9516.9065-3.9108-.5145 1.5297-.5719-1.3394-.7085 4.5938-.444.8802.8322z"/><path fill="#79726A" d="m156.9134 12.179-2.7003.4324-3.6814-.0022.0359-.3162 2.274-.6638 1.189.101z"/><path fill="#79726A" d="m187.5762 13.3872-3.2797.4573-1.8053-.5148-.9501-.8318-.1753-.9173 2.87.0885 1.2919.1467 2.6492.7703z"/><path fill="#79726A" d="m178.1999 12.7935.8629.9248-3.6199-.247-3.6483-.7188-4.935-.0822 2.1406-.6585-2.6803-.5341-.1611-.8495 4.3513.302 5.9941.8088z"/><path fill="#79726A" d="m632.9173 12.8331-12.4961.8554 4.0493-2.9105 1.8209-.2492 1.6658.1444 5.6184 1.2589z"/><path fill="#79726A" d="m440.4582 9.7412 7.2973 1.6528-5.5782.8723-1.2317 1.6312-1.9447.4184-1.0556 1.8366-2.6712.0864-4.767-1.352 2.0104-.7876-3.3227-.6412-4.3187-1.8717-1.7241-1.7358 6.0432-.7937 1.2142.7759 3.1572-.0308.8417-.7576 3.2548-.0771z"/><path fill="#79726A" d="m456.4089 8.1771 4.3444.7779-3.287 1.1938-6.4287.2612-6.5376-.3698-.3944-.6107-3.1809-.0389-2.4256-1.0174 6.845-.6191 3.2185.5331 2.2417-.6638z"/><path fill="#79726A" d="m513.3519 7.8669-2.9759.2923-1.9934.1681-.3092.3638-2.5908.3664-2.4013-.5255 1.2626-.692-4.9331-.0674 4.3273-.4036 3.3679-.0269.4529.5973 1.2732-.5307 2.0894-.3655 3.2877.4858z"/><path fill="#79726A" d="m621.5331 11.5606-4.8363.2765-6.1742-.6396-3.679-.8462-1.7013-1.59-3.0243-.4382 5.7558-1.5143 4.7952-.5005 4.3069 1.1159 5.1045 2.1432z"/><path fill="#79726A" d="m207.1057 9.8337 2.6725.7162-3.044.6597-4.0959 1.6671-3.9213.1594-4.5937-.2838-2.3817-.9036.0342-.8041 1.7523-.5905-4.0538.0169-2.4431-.7371-1.4044-1.0036 1.5368-.9854 1.5361-.676 2.2721-.1551-.9686-.5081 5.155-.1129 2.8306 1.1836 3.7304.4746 3.6353.4197z"/><path fill="#79726A" d="m248.1583 2.1944 5.9244.1735 4.76.2838 4.0565.6016-.0973.5917-5.4089.9619-5.3631.4488-2.0041.4962 4.8262-.0114-5.2307 1.3445-3.6125.6277-3.7911 1.8107-4.5726.3676-1.4124.4522-6.7115.2373 3.0557.2781-1.5323.3958 1.8333 1.0934-2.1061.76-3.4247.6274-1.0511.8675-3.0962.6625.31.5017 3.7877-.0857.0483.541-5.9232 1.3297-5.7925-.6116-6.5113.3436-3.2988-.2682-4.191-.1161-.278-1.0635 4.098-.5014-1.092-1.5997 1.3522-.1556 5.9266.9565-3.0228-1.4215-3.5953-.4252 1.7954-.8575 3.9308-.5281.629-.7726-3.1308-.8663-.9409-1.142 6.0589.0955 1.7506.2402 3.4591-.8078-4.9915-.2562-7.756.1412-3.9183-.7523-1.8473-.8963-2.5888-.6497-.4858-.7563 3.2962-.4227 2.5885-.0721 4.3492-.3593 3.259-.8261 2.7487.1159 2.394.6207 1.6846-1.197 2.926-.3547 3.9753-.2451 6.7756-.092 1.1775.2395 6.4001-.3751 4.8008.1407z"/><path fill="#79726A" d="m339.9273 1.2781 13.8654 1.7578-4.0929.8535-8.4803.0975-11.9312.2165 1.1162.3956 7.8466-.2444 6.677.7643 4.303-.6787 1.8432.7951-2.4336 1.2896 5.6436-.8244 10.7629-.8597 6.6456.4291 1.2449.9472-9.0368 1.5772-1.2517.5099-7.085.3833 5.1335.1063-2.5927 1.6162-1.7844 1.438.0697 2.4665 2.6615 1.4473-3.4628.0916-3.6451.7013 4.0906 1.1746.5211 1.8835-2.3701.2051 2.8714 1.9069-4.9241.1591 2.5706.9015-.7266.782-3.1252.3431-3.0894.0065 2.7771 1.5015.0301.9868-4.3864-.9172-1.1407.5933 2.9925.5543 2.9041 1.3548.8407 1.785-3.9511.4272-1.7091-.8545-2.7406-1.2734.7582 1.5044-2.5745 1.1655 5.8417.0941 3.0555.1209-5.9412 1.93-6.0252 1.7475-6.4867.7657-2.4448.0094-2.293.8541-3.0831 2.3402-4.7678 1.5535-1.5316.0914-2.951.5443-3.1857.5179-1.8992 1.3711-.0306 1.5537-1.1214 1.4554-3.6147 1.7736.8927 1.7321-.9965 1.833-1.1354 2.1642-3.1235.1351-3.2721-1.81-4.4318-.0114-2.1504-1.2156-1.4792-2.1646-3.8412-2.7566-1.1236-1.4442-.3025-1.9911-3.0702-2.0457.7981-1.6336-1.4796-.7813 2.1916-2.5904 3.3362-.8246.8755-.9271.4637-1.7318-2.5323.7851-1.2066.3297-1.9914.316-2.72-.7236-.1477-1.5057.8671-1.1793 2.056-.032 4.5246.5896-3.811-1.4077-1.9836-.7589-2.2073.3118-1.8502-.5495 2.4749-2.0655-1.3481-.8254-1.7593-1.5321-2.668-2.3508-2.8222-.8608.0258-.928-5.9483-1.297-4.7061-.1615-5.9243.0895-5.4089.1628-2.5724-.7057-3.8519-1.3939 5.8207-.6972 4.4615-.1171-9.485-.5764-4.9965-.9049.305-.8612 8.3922-1.0666 8.1191-1.0651.8574-.8063-5.983-.796 1.9323-.8836 7.6742-1.5475 3.2248-.2375-.9237-.996 5.2505-.5834 6.8164-.3483 6.8118-.0197 2.4187.69 5.8801-1.2202 5.2906.829 3.1123.1749 4.6036.7209-5.2705-1.195.3035-.9491 7.4421-1.3238 7.7781.0997 2.8271-.8176 7.8343-.213z"/></svg>